ISO-10303-21;
HEADER;
/* Generated by software containing ST-Developer
 * from STEP Tools, Inc. (www.steptools.com) 
 */

FILE_DESCRIPTION(
/* description */ (''),
/* implementation_level */ '2;1');

FILE_NAME(
/* name */ 
'/Users/smbrg/Projects/hardware/cad_n_models/pm2805-gimbal-bldc-1/FlyC
at 2805 BLDC Gimbal motor v1.step',
/* time_stamp */ '2021-11-13T00:28:33+03:00',
/* author */ (''),
/* organization */ (''),
/* preprocessor_version */ 'ST-DEVELOPER v18.1',
/* originating_system */ 'Autodesk Translation Framework v10.10.0.1391',

/* authorisation */ '');

FILE_SCHEMA (('AUTOMOTIVE_DESIGN { 1 0 10303 214 3 1 1 }'));
ENDSEC;

DATA;
#10=MECHANICAL_DESIGN_GEOMETRIC_PRESENTATION_REPRESENTATION('',(#17,#18,
#19,#20,#21,#22),#1488);
#11=SHAPE_REPRESENTATION_RELATIONSHIP('SRR','None',#1495,#12);
#12=ADVANCED_BREP_SHAPE_REPRESENTATION('',(#13,#14,#15,#16),#1487);
#13=MANIFOLD_SOLID_BREP('Body',#845);
#14=MANIFOLD_SOLID_BREP('Rotor',#846);
#15=MANIFOLD_SOLID_BREP('Bearing',#847);
#16=MANIFOLD_SOLID_BREP('Clamp',#848);
#17=STYLED_ITEM('',(#1506),#808);
#18=STYLED_ITEM('',(#1505),#13);
#19=STYLED_ITEM('',(#1506),#825);
#20=STYLED_ITEM('',(#1505),#14);
#21=STYLED_ITEM('',(#1504),#15);
#22=STYLED_ITEM('',(#1504),#16);
#23=CONICAL_SURFACE('',#881,0.95575,0.785398163397448);
#24=CONICAL_SURFACE('',#885,0.95575,0.785398163397448);
#25=CONICAL_SURFACE('',#889,0.95575,0.785398163397448);
#26=CONICAL_SURFACE('',#893,0.95575,0.785398163397448);
#27=CONICAL_SURFACE('',#906,0.5,1.02974425867665);
#28=CONICAL_SURFACE('',#908,1.05,0.785398163397448);
#29=CONICAL_SURFACE('',#912,0.5,1.02974425867665);
#30=CONICAL_SURFACE('',#914,1.05,0.785398163397448);
#31=CONICAL_SURFACE('',#918,0.5,1.02974425867665);
#32=CONICAL_SURFACE('',#920,1.05,0.785398163397448);
#33=CONICAL_SURFACE('',#924,0.44999769479257,1.02974425867665);
#34=CONICAL_SURFACE('',#926,1.05,0.785398163397448);
#35=CONICAL_SURFACE('',#937,0.40575,1.02974425867665);
#36=CONICAL_SURFACE('',#941,0.40575,1.02974425867665);
#37=CONICAL_SURFACE('',#945,0.40575,1.02974425867665);
#38=CONICAL_SURFACE('',#949,0.40575,1.02974425867665);
#39=FACE_BOUND('',#208,.T.);
#40=FACE_BOUND('',#209,.T.);
#41=FACE_BOUND('',#210,.T.);
#42=FACE_BOUND('',#211,.T.);
#43=FACE_BOUND('',#212,.T.);
#44=FACE_BOUND('',#224,.T.);
#45=FACE_BOUND('',#227,.T.);
#46=FACE_BOUND('',#228,.T.);
#47=FACE_BOUND('',#229,.T.);
#48=FACE_BOUND('',#230,.T.);
#49=FACE_BOUND('',#231,.T.);
#50=FACE_BOUND('',#246,.T.);
#51=FACE_BOUND('',#257,.T.);
#52=FACE_BOUND('',#258,.T.);
#53=FACE_BOUND('',#259,.T.);
#54=FACE_BOUND('',#260,.T.);
#55=FACE_BOUND('',#261,.T.);
#56=FACE_BOUND('',#264,.T.);
#57=FACE_BOUND('',#265,.T.);
#58=FACE_BOUND('',#266,.T.);
#59=FACE_BOUND('',#267,.T.);
#60=FACE_BOUND('',#268,.T.);
#61=FACE_BOUND('',#272,.T.);
#62=FACE_BOUND('',#274,.T.);
#63=FACE_BOUND('',#278,.T.);
#64=FACE_BOUND('',#280,.T.);
#65=CIRCLE('',#864,1.5);
#66=CIRCLE('',#865,1.5);
#67=CIRCLE('',#868,1.49999999999985);
#68=CIRCLE('',#869,1.49999999999985);
#69=CIRCLE('',#872,17.25);
#70=CIRCLE('',#874,17.25);
#71=CIRCLE('',#875,17.25);
#72=CIRCLE('',#876,7.5);
#73=CIRCLE('',#877,1.1);
#74=CIRCLE('',#878,1.1);
#75=CIRCLE('',#879,1.1);
#76=CIRCLE('',#880,1.1);
#77=CIRCLE('',#882,0.8115);
#78=CIRCLE('',#884,0.8115);
#79=CIRCLE('',#886,0.8115);
#80=CIRCLE('',#888,0.8115);
#81=CIRCLE('',#890,0.8115);
#82=CIRCLE('',#892,0.8115);
#83=CIRCLE('',#894,0.8115);
#84=CIRCLE('',#896,0.8115);
#85=CIRCLE('',#898,5.25);
#86=CIRCLE('',#899,5.25);
#87=CIRCLE('',#901,7.5);
#88=CIRCLE('',#904,17.25);
#89=CIRCLE('',#907,1.);
#90=CIRCLE('',#909,1.1);
#91=CIRCLE('',#910,1.);
#92=CIRCLE('',#913,1.);
#93=CIRCLE('',#915,1.1);
#94=CIRCLE('',#916,1.);
#95=CIRCLE('',#919,1.);
#96=CIRCLE('',#921,1.1);
#97=CIRCLE('',#922,1.);
#98=CIRCLE('',#925,0.8115);
#99=CIRCLE('',#927,1.1);
#100=CIRCLE('',#928,0.8115);
#101=CIRCLE('',#931,3.5);
#102=CIRCLE('',#932,3.5);
#103=CIRCLE('',#934,2.615);
#104=CIRCLE('',#936,2.615);
#105=CIRCLE('',#938,0.8115);
#106=CIRCLE('',#940,0.8115);
#107=CIRCLE('',#942,0.8115);
#108=CIRCLE('',#944,0.8115);
#109=CIRCLE('',#946,0.8115);
#110=CIRCLE('',#948,0.8115);
#111=CIRCLE('',#950,0.8115);
#112=CIRCLE('',#952,0.8115);
#113=CIRCLE('',#954,17.25);
#114=CIRCLE('',#956,17.25);
#115=CIRCLE('',#959,3.5);
#116=CIRCLE('',#960,3.5);
#117=CIRCLE('',#962,5.25);
#118=CIRCLE('',#963,5.25);
#119=CIRCLE('',#967,3.5);
#120=CIRCLE('',#968,3.5);
#121=CIRCLE('',#970,6.5);
#122=CIRCLE('',#971,6.5);
#123=CYLINDRICAL_SURFACE('',#863,1.5);
#124=CYLINDRICAL_SURFACE('',#867,1.49999999999985);
#125=CYLINDRICAL_SURFACE('',#883,0.8115);
#126=CYLINDRICAL_SURFACE('',#887,0.8115);
#127=CYLINDRICAL_SURFACE('',#891,0.8115);
#128=CYLINDRICAL_SURFACE('',#895,0.8115);
#129=CYLINDRICAL_SURFACE('',#897,5.25);
#130=CYLINDRICAL_SURFACE('',#900,7.5);
#131=CYLINDRICAL_SURFACE('',#903,17.25);
#132=CYLINDRICAL_SURFACE('',#911,1.);
#133=CYLINDRICAL_SURFACE('',#917,1.);
#134=CYLINDRICAL_SURFACE('',#923,1.);
#135=CYLINDRICAL_SURFACE('',#929,0.8115);
#136=CYLINDRICAL_SURFACE('',#930,3.5);
#137=CYLINDRICAL_SURFACE('',#935,2.615);
#138=CYLINDRICAL_SURFACE('',#939,0.8115);
#139=CYLINDRICAL_SURFACE('',#943,0.8115);
#140=CYLINDRICAL_SURFACE('',#947,0.8115);
#141=CYLINDRICAL_SURFACE('',#951,0.8115);
#142=CYLINDRICAL_SURFACE('',#955,17.25);
#143=CYLINDRICAL_SURFACE('',#958,3.5);
#144=CYLINDRICAL_SURFACE('',#961,5.25);
#145=CYLINDRICAL_SURFACE('',#966,3.5);
#146=CYLINDRICAL_SURFACE('',#969,6.5);
#147=FACE_OUTER_BOUND('',#201,.T.);
#148=FACE_OUTER_BOUND('',#202,.T.);
#149=FACE_OUTER_BOUND('',#203,.T.);
#150=FACE_OUTER_BOUND('',#204,.T.);
#151=FACE_OUTER_BOUND('',#205,.T.);
#152=FACE_OUTER_BOUND('',#206,.T.);
#153=FACE_OUTER_BOUND('',#207,.T.);
#154=FACE_OUTER_BOUND('',#213,.T.);
#155=FACE_OUTER_BOUND('',#214,.T.);
#156=FACE_OUTER_BOUND('',#215,.T.);
#157=FACE_OUTER_BOUND('',#216,.T.);
#158=FACE_OUTER_BOUND('',#217,.T.);
#159=FACE_OUTER_BOUND('',#218,.T.);
#160=FACE_OUTER_BOUND('',#219,.T.);
#161=FACE_OUTER_BOUND('',#220,.T.);
#162=FACE_OUTER_BOUND('',#221,.T.);
#163=FACE_OUTER_BOUND('',#222,.T.);
#164=FACE_OUTER_BOUND('',#223,.T.);
#165=FACE_OUTER_BOUND('',#225,.T.);
#166=FACE_OUTER_BOUND('',#226,.T.);
#167=FACE_OUTER_BOUND('',#232,.T.);
#168=FACE_OUTER_BOUND('',#233,.T.);
#169=FACE_OUTER_BOUND('',#234,.T.);
#170=FACE_OUTER_BOUND('',#235,.T.);
#171=FACE_OUTER_BOUND('',#236,.T.);
#172=FACE_OUTER_BOUND('',#237,.T.);
#173=FACE_OUTER_BOUND('',#238,.T.);
#174=FACE_OUTER_BOUND('',#239,.T.);
#175=FACE_OUTER_BOUND('',#240,.T.);
#176=FACE_OUTER_BOUND('',#241,.T.);
#177=FACE_OUTER_BOUND('',#242,.T.);
#178=FACE_OUTER_BOUND('',#243,.T.);
#179=FACE_OUTER_BOUND('',#244,.T.);
#180=FACE_OUTER_BOUND('',#245,.T.);
#181=FACE_OUTER_BOUND('',#247,.T.);
#182=FACE_OUTER_BOUND('',#248,.T.);
#183=FACE_OUTER_BOUND('',#249,.T.);
#184=FACE_OUTER_BOUND('',#250,.T.);
#185=FACE_OUTER_BOUND('',#251,.T.);
#186=FACE_OUTER_BOUND('',#252,.T.);
#187=FACE_OUTER_BOUND('',#253,.T.);
#188=FACE_OUTER_BOUND('',#254,.T.);
#189=FACE_OUTER_BOUND('',#255,.T.);
#190=FACE_OUTER_BOUND('',#256,.T.);
#191=FACE_OUTER_BOUND('',#262,.T.);
#192=FACE_OUTER_BOUND('',#263,.T.);
#193=FACE_OUTER_BOUND('',#269,.T.);
#194=FACE_OUTER_BOUND('',#270,.T.);
#195=FACE_OUTER_BOUND('',#271,.T.);
#196=FACE_OUTER_BOUND('',#273,.T.);
#197=FACE_OUTER_BOUND('',#275,.T.);
#198=FACE_OUTER_BOUND('',#276,.T.);
#199=FACE_OUTER_BOUND('',#277,.T.);
#200=FACE_OUTER_BOUND('',#279,.T.);
#201=EDGE_LOOP('',(#561,#562,#563,#564));
#202=EDGE_LOOP('',(#565,#566,#567,#568));
#203=EDGE_LOOP('',(#569,#570,#571,#572));
#204=EDGE_LOOP('',(#573,#574,#575,#576));
#205=EDGE_LOOP('',(#577,#578,#579,#580));
#206=EDGE_LOOP('',(#581,#582,#583,#584,#585,#586));
#207=EDGE_LOOP('',(#587,#588,#589,#590,#591,#592,#593));
#208=EDGE_LOOP('',(#594));
#209=EDGE_LOOP('',(#595));
#210=EDGE_LOOP('',(#596));
#211=EDGE_LOOP('',(#597));
#212=EDGE_LOOP('',(#598));
#213=EDGE_LOOP('',(#599,#600,#601,#602));
#214=EDGE_LOOP('',(#603,#604,#605,#606));
#215=EDGE_LOOP('',(#607,#608,#609,#610));
#216=EDGE_LOOP('',(#611,#612,#613,#614));
#217=EDGE_LOOP('',(#615,#616,#617,#618));
#218=EDGE_LOOP('',(#619,#620,#621,#622));
#219=EDGE_LOOP('',(#623,#624,#625,#626));
#220=EDGE_LOOP('',(#627,#628,#629,#630));
#221=EDGE_LOOP('',(#631,#632,#633,#634));
#222=EDGE_LOOP('',(#635,#636,#637,#638));
#223=EDGE_LOOP('',(#639));
#224=EDGE_LOOP('',(#640));
#225=EDGE_LOOP('',(#641,#642,#643,#644,#645,#646,#647,#648));
#226=EDGE_LOOP('',(#649));
#227=EDGE_LOOP('',(#650));
#228=EDGE_LOOP('',(#651));
#229=EDGE_LOOP('',(#652));
#230=EDGE_LOOP('',(#653));
#231=EDGE_LOOP('',(#654));
#232=EDGE_LOOP('',(#655,#656,#657));
#233=EDGE_LOOP('',(#658,#659,#660,#661));
#234=EDGE_LOOP('',(#662,#663,#664,#665));
#235=EDGE_LOOP('',(#666,#667,#668));
#236=EDGE_LOOP('',(#669,#670,#671,#672));
#237=EDGE_LOOP('',(#673,#674,#675,#676));
#238=EDGE_LOOP('',(#677,#678,#679));
#239=EDGE_LOOP('',(#680,#681,#682,#683));
#240=EDGE_LOOP('',(#684,#685,#686,#687));
#241=EDGE_LOOP('',(#688,#689,#690));
#242=EDGE_LOOP('',(#691,#692,#693,#694));
#243=EDGE_LOOP('',(#695,#696,#697,#698));
#244=EDGE_LOOP('',(#699,#700,#701,#702));
#245=EDGE_LOOP('',(#703));
#246=EDGE_LOOP('',(#704));
#247=EDGE_LOOP('',(#705,#706,#707,#708));
#248=EDGE_LOOP('',(#709,#710,#711));
#249=EDGE_LOOP('',(#712,#713,#714,#715));
#250=EDGE_LOOP('',(#716,#717,#718));
#251=EDGE_LOOP('',(#719,#720,#721,#722));
#252=EDGE_LOOP('',(#723,#724,#725));
#253=EDGE_LOOP('',(#726,#727,#728,#729));
#254=EDGE_LOOP('',(#730,#731,#732));
#255=EDGE_LOOP('',(#733,#734,#735,#736));
#256=EDGE_LOOP('',(#737));
#257=EDGE_LOOP('',(#738));
#258=EDGE_LOOP('',(#739));
#259=EDGE_LOOP('',(#740));
#260=EDGE_LOOP('',(#741));
#261=EDGE_LOOP('',(#742));
#262=EDGE_LOOP('',(#743,#744,#745,#746));
#263=EDGE_LOOP('',(#747));
#264=EDGE_LOOP('',(#748));
#265=EDGE_LOOP('',(#749));
#266=EDGE_LOOP('',(#750));
#267=EDGE_LOOP('',(#751));
#268=EDGE_LOOP('',(#752));
#269=EDGE_LOOP('',(#753,#754,#755,#756));
#270=EDGE_LOOP('',(#757,#758,#759,#760));
#271=EDGE_LOOP('',(#761));
#272=EDGE_LOOP('',(#762));
#273=EDGE_LOOP('',(#763));
#274=EDGE_LOOP('',(#764));
#275=EDGE_LOOP('',(#765,#766,#767,#768));
#276=EDGE_LOOP('',(#769,#770,#771,#772));
#277=EDGE_LOOP('',(#773));
#278=EDGE_LOOP('',(#774));
#279=EDGE_LOOP('',(#775));
#280=EDGE_LOOP('',(#776));
#281=LINE('',#1254,#331);
#282=LINE('',#1256,#332);
#283=LINE('',#1258,#333);
#284=LINE('',#1259,#334);
#285=LINE('',#1264,#335);
#286=LINE('',#1268,#336);
#287=LINE('',#1270,#337);
#288=LINE('',#1271,#338);
#289=LINE('',#1276,#339);
#290=LINE('',#1280,#340);
#291=LINE('',#1282,#341);
#292=LINE('',#1283,#342);
#293=LINE('',#1302,#343);
#294=LINE('',#1306,#344);
#295=LINE('',#1310,#345);
#296=LINE('',#1314,#346);
#297=LINE('',#1318,#347);
#298=LINE('',#1322,#348);
#299=LINE('',#1326,#349);
#300=LINE('',#1330,#350);
#301=LINE('',#1336,#351);
#302=LINE('',#1340,#352);
#303=LINE('',#1345,#353);
#304=LINE('',#1352,#354);
#305=LINE('',#1357,#355);
#306=LINE('',#1360,#356);
#307=LINE('',#1365,#357);
#308=LINE('',#1370,#358);
#309=LINE('',#1373,#359);
#310=LINE('',#1378,#360);
#311=LINE('',#1383,#361);
#312=LINE('',#1386,#362);
#313=LINE('',#1391,#363);
#314=LINE('',#1396,#364);
#315=LINE('',#1399,#365);
#316=LINE('',#1404,#366);
#317=LINE('',#1411,#367);
#318=LINE('',#1417,#368);
#319=LINE('',#1421,#369);
#320=LINE('',#1426,#370);
#321=LINE('',#1430,#371);
#322=LINE('',#1435,#372);
#323=LINE('',#1439,#373);
#324=LINE('',#1444,#374);
#325=LINE('',#1448,#375);
#326=LINE('',#1454,#376);
#327=LINE('',#1461,#377);
#328=LINE('',#1467,#378);
#329=LINE('',#1475,#379);
#330=LINE('',#1481,#380);
#331=VECTOR('',#978,10.);
#332=VECTOR('',#979,10.);
#333=VECTOR('',#980,10.);
#334=VECTOR('',#981,10.);
#335=VECTOR('',#986,10.);
#336=VECTOR('',#991,10.);
#337=VECTOR('',#992,10.);
#338=VECTOR('',#993,10.);
#339=VECTOR('',#998,10.);
#340=VECTOR('',#1003,10.);
#341=VECTOR('',#1004,10.);
#342=VECTOR('',#1005,10.);
#343=VECTOR('',#1028,0.95575);
#344=VECTOR('',#1033,0.8115);
#345=VECTOR('',#1038,0.95575);
#346=VECTOR('',#1043,0.8115);
#347=VECTOR('',#1048,0.95575);
#348=VECTOR('',#1053,0.8115);
#349=VECTOR('',#1058,0.95575);
#350=VECTOR('',#1063,0.8115);
#351=VECTOR('',#1070,5.25);
#352=VECTOR('',#1075,7.5);
#353=VECTOR('',#1082,17.25);
#354=VECTOR('',#1091,0.5);
#355=VECTOR('',#1096,1.05);
#356=VECTOR('',#1101,1.);
#357=VECTOR('',#1106,0.5);
#358=VECTOR('',#1111,1.05);
#359=VECTOR('',#1116,1.);
#360=VECTOR('',#1121,0.5);
#361=VECTOR('',#1126,1.05);
#362=VECTOR('',#1131,1.);
#363=VECTOR('',#1136,0.5);
#364=VECTOR('',#1141,1.05);
#365=VECTOR('',#1146,1.);
#366=VECTOR('',#1151,3.5);
#367=VECTOR('',#1160,2.615);
#368=VECTOR('',#1167,0.40575);
#369=VECTOR('',#1172,0.8115);
#370=VECTOR('',#1177,0.40575);
#371=VECTOR('',#1182,0.8115);
#372=VECTOR('',#1187,0.40575);
#373=VECTOR('',#1192,0.8115);
#374=VECTOR('',#1197,0.40575);
#375=VECTOR('',#1202,0.8115);
#376=VECTOR('',#1209,17.25);
#377=VECTOR('',#1218,3.5);
#378=VECTOR('',#1225,5.25);
#379=VECTOR('',#1236,3.5);
#380=VECTOR('',#1243,6.5);
#381=VERTEX_POINT('',#1252);
#382=VERTEX_POINT('',#1253);
#383=VERTEX_POINT('',#1255);
#384=VERTEX_POINT('',#1257);
#385=VERTEX_POINT('',#1261);
#386=VERTEX_POINT('',#1263);
#387=VERTEX_POINT('',#1267);
#388=VERTEX_POINT('',#1269);
#389=VERTEX_POINT('',#1273);
#390=VERTEX_POINT('',#1275);
#391=VERTEX_POINT('',#1279);
#392=VERTEX_POINT('',#1281);
#393=VERTEX_POINT('',#1287);
#394=VERTEX_POINT('',#1290);
#395=VERTEX_POINT('',#1292);
#396=VERTEX_POINT('',#1294);
#397=VERTEX_POINT('',#1296);
#398=VERTEX_POINT('',#1298);
#399=VERTEX_POINT('',#1301);
#400=VERTEX_POINT('',#1305);
#401=VERTEX_POINT('',#1309);
#402=VERTEX_POINT('',#1313);
#403=VERTEX_POINT('',#1317);
#404=VERTEX_POINT('',#1321);
#405=VERTEX_POINT('',#1325);
#406=VERTEX_POINT('',#1329);
#407=VERTEX_POINT('',#1333);
#408=VERTEX_POINT('',#1335);
#409=VERTEX_POINT('',#1339);
#410=VERTEX_POINT('',#1344);
#411=VERTEX_POINT('',#1349);
#412=VERTEX_POINT('',#1351);
#413=VERTEX_POINT('',#1354);
#414=VERTEX_POINT('',#1356);
#415=VERTEX_POINT('',#1362);
#416=VERTEX_POINT('',#1364);
#417=VERTEX_POINT('',#1367);
#418=VERTEX_POINT('',#1369);
#419=VERTEX_POINT('',#1375);
#420=VERTEX_POINT('',#1377);
#421=VERTEX_POINT('',#1380);
#422=VERTEX_POINT('',#1382);
#423=VERTEX_POINT('',#1388);
#424=VERTEX_POINT('',#1390);
#425=VERTEX_POINT('',#1393);
#426=VERTEX_POINT('',#1395);
#427=VERTEX_POINT('',#1401);
#428=VERTEX_POINT('',#1403);
#429=VERTEX_POINT('',#1407);
#430=VERTEX_POINT('',#1410);
#431=VERTEX_POINT('',#1414);
#432=VERTEX_POINT('',#1416);
#433=VERTEX_POINT('',#1419);
#434=VERTEX_POINT('',#1423);
#435=VERTEX_POINT('',#1425);
#436=VERTEX_POINT('',#1428);
#437=VERTEX_POINT('',#1432);
#438=VERTEX_POINT('',#1434);
#439=VERTEX_POINT('',#1437);
#440=VERTEX_POINT('',#1441);
#441=VERTEX_POINT('',#1443);
#442=VERTEX_POINT('',#1446);
#443=VERTEX_POINT('',#1450);
#444=VERTEX_POINT('',#1453);
#445=VERTEX_POINT('',#1458);
#446=VERTEX_POINT('',#1460);
#447=VERTEX_POINT('',#1464);
#448=VERTEX_POINT('',#1466);
#449=VERTEX_POINT('',#1472);
#450=VERTEX_POINT('',#1474);
#451=VERTEX_POINT('',#1478);
#452=VERTEX_POINT('',#1480);
#453=EDGE_CURVE('',#381,#382,#281,.T.);
#454=EDGE_CURVE('',#381,#383,#282,.T.);
#455=EDGE_CURVE('',#383,#384,#283,.T.);
#456=EDGE_CURVE('',#382,#384,#284,.T.);
#457=EDGE_CURVE('',#385,#381,#65,.T.);
#458=EDGE_CURVE('',#385,#386,#285,.T.);
#459=EDGE_CURVE('',#386,#383,#66,.T.);
#460=EDGE_CURVE('',#387,#385,#286,.T.);
#461=EDGE_CURVE('',#387,#388,#287,.T.);
#462=EDGE_CURVE('',#388,#386,#288,.T.);
#463=EDGE_CURVE('',#389,#387,#67,.T.);
#464=EDGE_CURVE('',#389,#390,#289,.T.);
#465=EDGE_CURVE('',#390,#388,#68,.T.);
#466=EDGE_CURVE('',#391,#389,#290,.T.);
#467=EDGE_CURVE('',#392,#391,#291,.T.);
#468=EDGE_CURVE('',#392,#390,#292,.T.);
#469=EDGE_CURVE('',#384,#392,#69,.T.);
#470=EDGE_CURVE('',#382,#393,#70,.T.);
#471=EDGE_CURVE('',#393,#391,#71,.T.);
#472=EDGE_CURVE('',#394,#394,#72,.T.);
#473=EDGE_CURVE('',#395,#395,#73,.T.);
#474=EDGE_CURVE('',#396,#396,#74,.T.);
#475=EDGE_CURVE('',#397,#397,#75,.T.);
#476=EDGE_CURVE('',#398,#398,#76,.T.);
#477=EDGE_CURVE('',#398,#399,#293,.T.);
#478=EDGE_CURVE('',#399,#399,#77,.T.);
#479=EDGE_CURVE('',#399,#400,#294,.T.);
#480=EDGE_CURVE('',#400,#400,#78,.T.);
#481=EDGE_CURVE('',#397,#401,#295,.T.);
#482=EDGE_CURVE('',#401,#401,#79,.T.);
#483=EDGE_CURVE('',#401,#402,#296,.T.);
#484=EDGE_CURVE('',#402,#402,#80,.T.);
#485=EDGE_CURVE('',#396,#403,#297,.T.);
#486=EDGE_CURVE('',#403,#403,#81,.T.);
#487=EDGE_CURVE('',#403,#404,#298,.T.);
#488=EDGE_CURVE('',#404,#404,#82,.T.);
#489=EDGE_CURVE('',#395,#405,#299,.T.);
#490=EDGE_CURVE('',#405,#405,#83,.T.);
#491=EDGE_CURVE('',#405,#406,#300,.T.);
#492=EDGE_CURVE('',#406,#406,#84,.T.);
#493=EDGE_CURVE('',#407,#407,#85,.T.);
#494=EDGE_CURVE('',#407,#408,#301,.T.);
#495=EDGE_CURVE('',#408,#408,#86,.T.);
#496=EDGE_CURVE('',#394,#409,#302,.T.);
#497=EDGE_CURVE('',#409,#409,#87,.T.);
#498=EDGE_CURVE('',#393,#410,#303,.T.);
#499=EDGE_CURVE('',#410,#410,#88,.T.);
#500=EDGE_CURVE('',#411,#411,#89,.T.);
#501=EDGE_CURVE('',#411,#412,#304,.T.);
#502=EDGE_CURVE('',#413,#413,#90,.T.);
#503=EDGE_CURVE('',#413,#414,#305,.T.);
#504=EDGE_CURVE('',#414,#414,#91,.T.);
#505=EDGE_CURVE('',#414,#411,#306,.T.);
#506=EDGE_CURVE('',#415,#415,#92,.T.);
#507=EDGE_CURVE('',#415,#416,#307,.T.);
#508=EDGE_CURVE('',#417,#417,#93,.T.);
#509=EDGE_CURVE('',#417,#418,#308,.T.);
#510=EDGE_CURVE('',#418,#418,#94,.T.);
#511=EDGE_CURVE('',#418,#415,#309,.T.);
#512=EDGE_CURVE('',#419,#419,#95,.T.);
#513=EDGE_CURVE('',#419,#420,#310,.T.);
#514=EDGE_CURVE('',#421,#421,#96,.T.);
#515=EDGE_CURVE('',#421,#422,#311,.T.);
#516=EDGE_CURVE('',#422,#422,#97,.T.);
#517=EDGE_CURVE('',#422,#419,#312,.T.);
#518=EDGE_CURVE('',#423,#423,#98,.T.);
#519=EDGE_CURVE('',#423,#424,#313,.T.);
#520=EDGE_CURVE('',#425,#425,#99,.T.);
#521=EDGE_CURVE('',#425,#426,#314,.T.);
#522=EDGE_CURVE('',#426,#426,#100,.F.);
#523=EDGE_CURVE('',#426,#423,#315,.T.);
#524=EDGE_CURVE('',#427,#427,#101,.T.);
#525=EDGE_CURVE('',#427,#428,#316,.T.);
#526=EDGE_CURVE('',#428,#428,#102,.T.);
#527=EDGE_CURVE('',#429,#429,#103,.T.);
#528=EDGE_CURVE('',#429,#430,#317,.T.);
#529=EDGE_CURVE('',#430,#430,#104,.T.);
#530=EDGE_CURVE('',#431,#431,#105,.T.);
#531=EDGE_CURVE('',#431,#432,#318,.T.);
#532=EDGE_CURVE('',#433,#433,#106,.T.);
#533=EDGE_CURVE('',#433,#431,#319,.T.);
#534=EDGE_CURVE('',#434,#434,#107,.T.);
#535=EDGE_CURVE('',#434,#435,#320,.T.);
#536=EDGE_CURVE('',#436,#436,#108,.T.);
#537=EDGE_CURVE('',#436,#434,#321,.T.);
#538=EDGE_CURVE('',#437,#437,#109,.T.);
#539=EDGE_CURVE('',#437,#438,#322,.T.);
#540=EDGE_CURVE('',#439,#439,#110,.T.);
#541=EDGE_CURVE('',#439,#437,#323,.T.);
#542=EDGE_CURVE('',#440,#440,#111,.T.);
#543=EDGE_CURVE('',#440,#441,#324,.T.);
#544=EDGE_CURVE('',#442,#442,#112,.T.);
#545=EDGE_CURVE('',#442,#440,#325,.T.);
#546=EDGE_CURVE('',#443,#443,#113,.T.);
#547=EDGE_CURVE('',#443,#444,#326,.T.);
#548=EDGE_CURVE('',#444,#444,#114,.T.);
#549=EDGE_CURVE('',#445,#445,#115,.T.);
#550=EDGE_CURVE('',#445,#446,#327,.T.);
#551=EDGE_CURVE('',#446,#446,#116,.T.);
#552=EDGE_CURVE('',#447,#447,#117,.T.);
#553=EDGE_CURVE('',#447,#448,#328,.T.);
#554=EDGE_CURVE('',#448,#448,#118,.T.);
#555=EDGE_CURVE('',#449,#449,#119,.T.);
#556=EDGE_CURVE('',#449,#450,#329,.T.);
#557=EDGE_CURVE('',#450,#450,#120,.T.);
#558=EDGE_CURVE('',#451,#451,#121,.T.);
#559=EDGE_CURVE('',#451,#452,#330,.T.);
#560=EDGE_CURVE('',#452,#452,#122,.T.);
#561=ORIENTED_EDGE('',*,*,#453,.F.);
#562=ORIENTED_EDGE('',*,*,#454,.T.);
#563=ORIENTED_EDGE('',*,*,#455,.T.);
#564=ORIENTED_EDGE('',*,*,#456,.F.);
#565=ORIENTED_EDGE('',*,*,#457,.F.);
#566=ORIENTED_EDGE('',*,*,#458,.T.);
#567=ORIENTED_EDGE('',*,*,#459,.T.);
#568=ORIENTED_EDGE('',*,*,#454,.F.);
#569=ORIENTED_EDGE('',*,*,#460,.F.);
#570=ORIENTED_EDGE('',*,*,#461,.T.);
#571=ORIENTED_EDGE('',*,*,#462,.T.);
#572=ORIENTED_EDGE('',*,*,#458,.F.);
#573=ORIENTED_EDGE('',*,*,#463,.F.);
#574=ORIENTED_EDGE('',*,*,#464,.T.);
#575=ORIENTED_EDGE('',*,*,#465,.T.);
#576=ORIENTED_EDGE('',*,*,#461,.F.);
#577=ORIENTED_EDGE('',*,*,#466,.F.);
#578=ORIENTED_EDGE('',*,*,#467,.F.);
#579=ORIENTED_EDGE('',*,*,#468,.T.);
#580=ORIENTED_EDGE('',*,*,#464,.F.);
#581=ORIENTED_EDGE('',*,*,#469,.F.);
#582=ORIENTED_EDGE('',*,*,#455,.F.);
#583=ORIENTED_EDGE('',*,*,#459,.F.);
#584=ORIENTED_EDGE('',*,*,#462,.F.);
#585=ORIENTED_EDGE('',*,*,#465,.F.);
#586=ORIENTED_EDGE('',*,*,#468,.F.);
#587=ORIENTED_EDGE('',*,*,#466,.T.);
#588=ORIENTED_EDGE('',*,*,#463,.T.);
#589=ORIENTED_EDGE('',*,*,#460,.T.);
#590=ORIENTED_EDGE('',*,*,#457,.T.);
#591=ORIENTED_EDGE('',*,*,#453,.T.);
#592=ORIENTED_EDGE('',*,*,#470,.T.);
#593=ORIENTED_EDGE('',*,*,#471,.T.);
#594=ORIENTED_EDGE('',*,*,#472,.T.);
#595=ORIENTED_EDGE('',*,*,#473,.T.);
#596=ORIENTED_EDGE('',*,*,#474,.T.);
#597=ORIENTED_EDGE('',*,*,#475,.T.);
#598=ORIENTED_EDGE('',*,*,#476,.T.);
#599=ORIENTED_EDGE('',*,*,#476,.F.);
#600=ORIENTED_EDGE('',*,*,#477,.T.);
#601=ORIENTED_EDGE('',*,*,#478,.F.);
#602=ORIENTED_EDGE('',*,*,#477,.F.);
#603=ORIENTED_EDGE('',*,*,#478,.T.);
#604=ORIENTED_EDGE('',*,*,#479,.T.);
#605=ORIENTED_EDGE('',*,*,#480,.F.);
#606=ORIENTED_EDGE('',*,*,#479,.F.);
#607=ORIENTED_EDGE('',*,*,#475,.F.);
#608=ORIENTED_EDGE('',*,*,#481,.T.);
#609=ORIENTED_EDGE('',*,*,#482,.F.);
#610=ORIENTED_EDGE('',*,*,#481,.F.);
#611=ORIENTED_EDGE('',*,*,#482,.T.);
#612=ORIENTED_EDGE('',*,*,#483,.T.);
#613=ORIENTED_EDGE('',*,*,#484,.F.);
#614=ORIENTED_EDGE('',*,*,#483,.F.);
#615=ORIENTED_EDGE('',*,*,#474,.F.);
#616=ORIENTED_EDGE('',*,*,#485,.T.);
#617=ORIENTED_EDGE('',*,*,#486,.T.);
#618=ORIENTED_EDGE('',*,*,#485,.F.);
#619=ORIENTED_EDGE('',*,*,#486,.F.);
#620=ORIENTED_EDGE('',*,*,#487,.T.);
#621=ORIENTED_EDGE('',*,*,#488,.F.);
#622=ORIENTED_EDGE('',*,*,#487,.F.);
#623=ORIENTED_EDGE('',*,*,#473,.F.);
#624=ORIENTED_EDGE('',*,*,#489,.T.);
#625=ORIENTED_EDGE('',*,*,#490,.T.);
#626=ORIENTED_EDGE('',*,*,#489,.F.);
#627=ORIENTED_EDGE('',*,*,#490,.F.);
#628=ORIENTED_EDGE('',*,*,#491,.T.);
#629=ORIENTED_EDGE('',*,*,#492,.F.);
#630=ORIENTED_EDGE('',*,*,#491,.F.);
#631=ORIENTED_EDGE('',*,*,#493,.F.);
#632=ORIENTED_EDGE('',*,*,#494,.T.);
#633=ORIENTED_EDGE('',*,*,#495,.F.);
#634=ORIENTED_EDGE('',*,*,#494,.F.);
#635=ORIENTED_EDGE('',*,*,#472,.F.);
#636=ORIENTED_EDGE('',*,*,#496,.T.);
#637=ORIENTED_EDGE('',*,*,#497,.T.);
#638=ORIENTED_EDGE('',*,*,#496,.F.);
#639=ORIENTED_EDGE('',*,*,#497,.F.);
#640=ORIENTED_EDGE('',*,*,#493,.T.);
#641=ORIENTED_EDGE('',*,*,#467,.T.);
#642=ORIENTED_EDGE('',*,*,#471,.F.);
#643=ORIENTED_EDGE('',*,*,#498,.T.);
#644=ORIENTED_EDGE('',*,*,#499,.F.);
#645=ORIENTED_EDGE('',*,*,#498,.F.);
#646=ORIENTED_EDGE('',*,*,#470,.F.);
#647=ORIENTED_EDGE('',*,*,#456,.T.);
#648=ORIENTED_EDGE('',*,*,#469,.T.);
#649=ORIENTED_EDGE('',*,*,#499,.T.);
#650=ORIENTED_EDGE('',*,*,#480,.T.);
#651=ORIENTED_EDGE('',*,*,#484,.T.);
#652=ORIENTED_EDGE('',*,*,#488,.T.);
#653=ORIENTED_EDGE('',*,*,#492,.T.);
#654=ORIENTED_EDGE('',*,*,#495,.T.);
#655=ORIENTED_EDGE('',*,*,#500,.F.);
#656=ORIENTED_EDGE('',*,*,#501,.T.);
#657=ORIENTED_EDGE('',*,*,#501,.F.);
#658=ORIENTED_EDGE('',*,*,#502,.F.);
#659=ORIENTED_EDGE('',*,*,#503,.T.);
#660=ORIENTED_EDGE('',*,*,#504,.T.);
#661=ORIENTED_EDGE('',*,*,#503,.F.);
#662=ORIENTED_EDGE('',*,*,#504,.F.);
#663=ORIENTED_EDGE('',*,*,#505,.T.);
#664=ORIENTED_EDGE('',*,*,#500,.T.);
#665=ORIENTED_EDGE('',*,*,#505,.F.);
#666=ORIENTED_EDGE('',*,*,#506,.F.);
#667=ORIENTED_EDGE('',*,*,#507,.T.);
#668=ORIENTED_EDGE('',*,*,#507,.F.);
#669=ORIENTED_EDGE('',*,*,#508,.F.);
#670=ORIENTED_EDGE('',*,*,#509,.T.);
#671=ORIENTED_EDGE('',*,*,#510,.T.);
#672=ORIENTED_EDGE('',*,*,#509,.F.);
#673=ORIENTED_EDGE('',*,*,#510,.F.);
#674=ORIENTED_EDGE('',*,*,#511,.T.);
#675=ORIENTED_EDGE('',*,*,#506,.T.);
#676=ORIENTED_EDGE('',*,*,#511,.F.);
#677=ORIENTED_EDGE('',*,*,#512,.F.);
#678=ORIENTED_EDGE('',*,*,#513,.T.);
#679=ORIENTED_EDGE('',*,*,#513,.F.);
#680=ORIENTED_EDGE('',*,*,#514,.F.);
#681=ORIENTED_EDGE('',*,*,#515,.T.);
#682=ORIENTED_EDGE('',*,*,#516,.T.);
#683=ORIENTED_EDGE('',*,*,#515,.F.);
#684=ORIENTED_EDGE('',*,*,#516,.F.);
#685=ORIENTED_EDGE('',*,*,#517,.T.);
#686=ORIENTED_EDGE('',*,*,#512,.T.);
#687=ORIENTED_EDGE('',*,*,#517,.F.);
#688=ORIENTED_EDGE('',*,*,#518,.F.);
#689=ORIENTED_EDGE('',*,*,#519,.T.);
#690=ORIENTED_EDGE('',*,*,#519,.F.);
#691=ORIENTED_EDGE('',*,*,#520,.F.);
#692=ORIENTED_EDGE('',*,*,#521,.T.);
#693=ORIENTED_EDGE('',*,*,#522,.T.);
#694=ORIENTED_EDGE('',*,*,#521,.F.);
#695=ORIENTED_EDGE('',*,*,#522,.F.);
#696=ORIENTED_EDGE('',*,*,#523,.T.);
#697=ORIENTED_EDGE('',*,*,#518,.T.);
#698=ORIENTED_EDGE('',*,*,#523,.F.);
#699=ORIENTED_EDGE('',*,*,#524,.T.);
#700=ORIENTED_EDGE('',*,*,#525,.T.);
#701=ORIENTED_EDGE('',*,*,#526,.F.);
#702=ORIENTED_EDGE('',*,*,#525,.F.);
#703=ORIENTED_EDGE('',*,*,#524,.F.);
#704=ORIENTED_EDGE('',*,*,#527,.F.);
#705=ORIENTED_EDGE('',*,*,#527,.T.);
#706=ORIENTED_EDGE('',*,*,#528,.T.);
#707=ORIENTED_EDGE('',*,*,#529,.F.);
#708=ORIENTED_EDGE('',*,*,#528,.F.);
#709=ORIENTED_EDGE('',*,*,#530,.T.);
#710=ORIENTED_EDGE('',*,*,#531,.T.);
#711=ORIENTED_EDGE('',*,*,#531,.F.);
#712=ORIENTED_EDGE('',*,*,#532,.F.);
#713=ORIENTED_EDGE('',*,*,#533,.T.);
#714=ORIENTED_EDGE('',*,*,#530,.F.);
#715=ORIENTED_EDGE('',*,*,#533,.F.);
#716=ORIENTED_EDGE('',*,*,#534,.T.);
#717=ORIENTED_EDGE('',*,*,#535,.T.);
#718=ORIENTED_EDGE('',*,*,#535,.F.);
#719=ORIENTED_EDGE('',*,*,#536,.F.);
#720=ORIENTED_EDGE('',*,*,#537,.T.);
#721=ORIENTED_EDGE('',*,*,#534,.F.);
#722=ORIENTED_EDGE('',*,*,#537,.F.);
#723=ORIENTED_EDGE('',*,*,#538,.F.);
#724=ORIENTED_EDGE('',*,*,#539,.T.);
#725=ORIENTED_EDGE('',*,*,#539,.F.);
#726=ORIENTED_EDGE('',*,*,#540,.F.);
#727=ORIENTED_EDGE('',*,*,#541,.T.);
#728=ORIENTED_EDGE('',*,*,#538,.T.);
#729=ORIENTED_EDGE('',*,*,#541,.F.);
#730=ORIENTED_EDGE('',*,*,#542,.F.);
#731=ORIENTED_EDGE('',*,*,#543,.T.);
#732=ORIENTED_EDGE('',*,*,#543,.F.);
#733=ORIENTED_EDGE('',*,*,#544,.F.);
#734=ORIENTED_EDGE('',*,*,#545,.T.);
#735=ORIENTED_EDGE('',*,*,#542,.T.);
#736=ORIENTED_EDGE('',*,*,#545,.F.);
#737=ORIENTED_EDGE('',*,*,#546,.F.);
#738=ORIENTED_EDGE('',*,*,#526,.T.);
#739=ORIENTED_EDGE('',*,*,#532,.T.);
#740=ORIENTED_EDGE('',*,*,#536,.T.);
#741=ORIENTED_EDGE('',*,*,#540,.T.);
#742=ORIENTED_EDGE('',*,*,#544,.T.);
#743=ORIENTED_EDGE('',*,*,#546,.T.);
#744=ORIENTED_EDGE('',*,*,#547,.T.);
#745=ORIENTED_EDGE('',*,*,#548,.T.);
#746=ORIENTED_EDGE('',*,*,#547,.F.);
#747=ORIENTED_EDGE('',*,*,#548,.F.);
#748=ORIENTED_EDGE('',*,*,#502,.T.);
#749=ORIENTED_EDGE('',*,*,#508,.T.);
#750=ORIENTED_EDGE('',*,*,#514,.T.);
#751=ORIENTED_EDGE('',*,*,#520,.T.);
#752=ORIENTED_EDGE('',*,*,#529,.T.);
#753=ORIENTED_EDGE('',*,*,#549,.T.);
#754=ORIENTED_EDGE('',*,*,#550,.T.);
#755=ORIENTED_EDGE('',*,*,#551,.T.);
#756=ORIENTED_EDGE('',*,*,#550,.F.);
#757=ORIENTED_EDGE('',*,*,#552,.T.);
#758=ORIENTED_EDGE('',*,*,#553,.T.);
#759=ORIENTED_EDGE('',*,*,#554,.T.);
#760=ORIENTED_EDGE('',*,*,#553,.F.);
#761=ORIENTED_EDGE('',*,*,#554,.F.);
#762=ORIENTED_EDGE('',*,*,#551,.F.);
#763=ORIENTED_EDGE('',*,*,#552,.F.);
#764=ORIENTED_EDGE('',*,*,#549,.F.);
#765=ORIENTED_EDGE('',*,*,#555,.F.);
#766=ORIENTED_EDGE('',*,*,#556,.T.);
#767=ORIENTED_EDGE('',*,*,#557,.T.);
#768=ORIENTED_EDGE('',*,*,#556,.F.);
#769=ORIENTED_EDGE('',*,*,#558,.F.);
#770=ORIENTED_EDGE('',*,*,#559,.T.);
#771=ORIENTED_EDGE('',*,*,#560,.T.);
#772=ORIENTED_EDGE('',*,*,#559,.F.);
#773=ORIENTED_EDGE('',*,*,#558,.T.);
#774=ORIENTED_EDGE('',*,*,#555,.T.);
#775=ORIENTED_EDGE('',*,*,#560,.F.);
#776=ORIENTED_EDGE('',*,*,#557,.F.);
#777=PLANE('',#862);
#778=PLANE('',#866);
#779=PLANE('',#870);
#780=PLANE('',#871);
#781=PLANE('',#873);
#782=PLANE('',#902);
#783=PLANE('',#905);
#784=PLANE('',#933);
#785=PLANE('',#953);
#786=PLANE('',#957);
#787=PLANE('',#964);
#788=PLANE('',#965);
#789=PLANE('',#972);
#790=PLANE('',#973);
#791=ADVANCED_FACE('',(#147),#777,.F.);
#792=ADVANCED_FACE('',(#148),#123,.F.);
#793=ADVANCED_FACE('',(#149),#778,.F.);
#794=ADVANCED_FACE('',(#150),#124,.F.);
#795=ADVANCED_FACE('',(#151),#779,.F.);
#796=ADVANCED_FACE('',(#152),#780,.T.);
#797=ADVANCED_FACE('',(#153,#39,#40,#41,#42,#43),#781,.T.);
#798=ADVANCED_FACE('',(#154),#23,.F.);
#799=ADVANCED_FACE('',(#155),#125,.F.);
#800=ADVANCED_FACE('',(#156),#24,.F.);
#801=ADVANCED_FACE('',(#157),#126,.F.);
#802=ADVANCED_FACE('',(#158),#25,.F.);
#803=ADVANCED_FACE('',(#159),#127,.F.);
#804=ADVANCED_FACE('',(#160),#26,.F.);
#805=ADVANCED_FACE('',(#161),#128,.F.);
#806=ADVANCED_FACE('',(#162),#129,.F.);
#807=ADVANCED_FACE('',(#163),#130,.F.);
#808=ADVANCED_FACE('',(#164,#44),#782,.T.);
#809=ADVANCED_FACE('',(#165),#131,.T.);
#810=ADVANCED_FACE('',(#166,#45,#46,#47,#48,#49),#783,.T.);
#811=ADVANCED_FACE('',(#167),#27,.F.);
#812=ADVANCED_FACE('',(#168),#28,.F.);
#813=ADVANCED_FACE('',(#169),#132,.F.);
#814=ADVANCED_FACE('',(#170),#29,.F.);
#815=ADVANCED_FACE('',(#171),#30,.F.);
#816=ADVANCED_FACE('',(#172),#133,.F.);
#817=ADVANCED_FACE('',(#173),#31,.F.);
#818=ADVANCED_FACE('',(#174),#32,.F.);
#819=ADVANCED_FACE('',(#175),#134,.F.);
#820=ADVANCED_FACE('',(#176),#33,.F.);
#821=ADVANCED_FACE('',(#177),#34,.F.);
#822=ADVANCED_FACE('',(#178),#135,.F.);
#823=ADVANCED_FACE('',(#179),#136,.T.);
#824=ADVANCED_FACE('',(#180,#50),#784,.T.);
#825=ADVANCED_FACE('',(#181),#137,.F.);
#826=ADVANCED_FACE('',(#182),#35,.F.);
#827=ADVANCED_FACE('',(#183),#138,.F.);
#828=ADVANCED_FACE('',(#184),#36,.F.);
#829=ADVANCED_FACE('',(#185),#139,.F.);
#830=ADVANCED_FACE('',(#186),#37,.F.);
#831=ADVANCED_FACE('',(#187),#140,.F.);
#832=ADVANCED_FACE('',(#188),#38,.F.);
#833=ADVANCED_FACE('',(#189),#141,.F.);
#834=ADVANCED_FACE('',(#190,#51,#52,#53,#54,#55),#785,.F.);
#835=ADVANCED_FACE('',(#191),#142,.T.);
#836=ADVANCED_FACE('',(#192,#56,#57,#58,#59,#60),#786,.F.);
#837=ADVANCED_FACE('',(#193),#143,.F.);
#838=ADVANCED_FACE('',(#194),#144,.T.);
#839=ADVANCED_FACE('',(#195,#61),#787,.T.);
#840=ADVANCED_FACE('',(#196,#62),#788,.T.);
#841=ADVANCED_FACE('',(#197),#145,.F.);
#842=ADVANCED_FACE('',(#198),#146,.T.);
#843=ADVANCED_FACE('',(#199,#63),#789,.T.);
#844=ADVANCED_FACE('',(#200,#64),#790,.F.);
#845=CLOSED_SHELL('',(#791,#792,#793,#794,#795,#796,#797,#798,#799,#800,
#801,#802,#803,#804,#805,#806,#807,#808,#809,#810));
#846=CLOSED_SHELL('',(#811,#812,#813,#814,#815,#816,#817,#818,#819,#820,
#821,#822,#823,#824,#825,#826,#827,#828,#829,#830,#831,#832,#833,#834,#835,
#836));
#847=CLOSED_SHELL('',(#837,#838,#839,#840));
#848=CLOSED_SHELL('',(#841,#842,#843,#844));
#849=DERIVED_UNIT_ELEMENT(#851,1.);
#850=DERIVED_UNIT_ELEMENT(#1490,-3.);
#851=(
MASS_UNIT()
NAMED_UNIT(*)
SI_UNIT(.KILO.,.GRAM.)
);
#852=DERIVED_UNIT((#849,#850));
#853=MEASURE_REPRESENTATION_ITEM('density measure',
POSITIVE_RATIO_MEASURE(7850.),#852);
#854=PROPERTY_DEFINITION_REPRESENTATION(#859,#856);
#855=PROPERTY_DEFINITION_REPRESENTATION(#860,#857);
#856=REPRESENTATION('material name',(#858),#1487);
#857=REPRESENTATION('density',(#853),#1487);
#858=DESCRIPTIVE_REPRESENTATION_ITEM('Steel','Steel');
#859=PROPERTY_DEFINITION('material property','material name',#1497);
#860=PROPERTY_DEFINITION('material property','density of part',#1497);
#861=AXIS2_PLACEMENT_3D('placement',#1250,#974,#975);
#862=AXIS2_PLACEMENT_3D('',#1251,#976,#977);
#863=AXIS2_PLACEMENT_3D('',#1260,#982,#983);
#864=AXIS2_PLACEMENT_3D('',#1262,#984,#985);
#865=AXIS2_PLACEMENT_3D('',#1265,#987,#988);
#866=AXIS2_PLACEMENT_3D('',#1266,#989,#990);
#867=AXIS2_PLACEMENT_3D('',#1272,#994,#995);
#868=AXIS2_PLACEMENT_3D('',#1274,#996,#997);
#869=AXIS2_PLACEMENT_3D('',#1277,#999,#1000);
#870=AXIS2_PLACEMENT_3D('',#1278,#1001,#1002);
#871=AXIS2_PLACEMENT_3D('',#1284,#1006,#1007);
#872=AXIS2_PLACEMENT_3D('',#1285,#1008,#1009);
#873=AXIS2_PLACEMENT_3D('',#1286,#1010,#1011);
#874=AXIS2_PLACEMENT_3D('',#1288,#1012,#1013);
#875=AXIS2_PLACEMENT_3D('',#1289,#1014,#1015);
#876=AXIS2_PLACEMENT_3D('',#1291,#1016,#1017);
#877=AXIS2_PLACEMENT_3D('',#1293,#1018,#1019);
#878=AXIS2_PLACEMENT_3D('',#1295,#1020,#1021);
#879=AXIS2_PLACEMENT_3D('',#1297,#1022,#1023);
#880=AXIS2_PLACEMENT_3D('',#1299,#1024,#1025);
#881=AXIS2_PLACEMENT_3D('',#1300,#1026,#1027);
#882=AXIS2_PLACEMENT_3D('',#1303,#1029,#1030);
#883=AXIS2_PLACEMENT_3D('',#1304,#1031,#1032);
#884=AXIS2_PLACEMENT_3D('',#1307,#1034,#1035);
#885=AXIS2_PLACEMENT_3D('',#1308,#1036,#1037);
#886=AXIS2_PLACEMENT_3D('',#1311,#1039,#1040);
#887=AXIS2_PLACEMENT_3D('',#1312,#1041,#1042);
#888=AXIS2_PLACEMENT_3D('',#1315,#1044,#1045);
#889=AXIS2_PLACEMENT_3D('',#1316,#1046,#1047);
#890=AXIS2_PLACEMENT_3D('',#1319,#1049,#1050);
#891=AXIS2_PLACEMENT_3D('',#1320,#1051,#1052);
#892=AXIS2_PLACEMENT_3D('',#1323,#1054,#1055);
#893=AXIS2_PLACEMENT_3D('',#1324,#1056,#1057);
#894=AXIS2_PLACEMENT_3D('',#1327,#1059,#1060);
#895=AXIS2_PLACEMENT_3D('',#1328,#1061,#1062);
#896=AXIS2_PLACEMENT_3D('',#1331,#1064,#1065);
#897=AXIS2_PLACEMENT_3D('',#1332,#1066,#1067);
#898=AXIS2_PLACEMENT_3D('',#1334,#1068,#1069);
#899=AXIS2_PLACEMENT_3D('',#1337,#1071,#1072);
#900=AXIS2_PLACEMENT_3D('',#1338,#1073,#1074);
#901=AXIS2_PLACEMENT_3D('',#1341,#1076,#1077);
#902=AXIS2_PLACEMENT_3D('',#1342,#1078,#1079);
#903=AXIS2_PLACEMENT_3D('',#1343,#1080,#1081);
#904=AXIS2_PLACEMENT_3D('',#1346,#1083,#1084);
#905=AXIS2_PLACEMENT_3D('',#1347,#1085,#1086);
#906=AXIS2_PLACEMENT_3D('',#1348,#1087,#1088);
#907=AXIS2_PLACEMENT_3D('',#1350,#1089,#1090);
#908=AXIS2_PLACEMENT_3D('',#1353,#1092,#1093);
#909=AXIS2_PLACEMENT_3D('',#1355,#1094,#1095);
#910=AXIS2_PLACEMENT_3D('',#1358,#1097,#1098);
#911=AXIS2_PLACEMENT_3D('',#1359,#1099,#1100);
#912=AXIS2_PLACEMENT_3D('',#1361,#1102,#1103);
#913=AXIS2_PLACEMENT_3D('',#1363,#1104,#1105);
#914=AXIS2_PLACEMENT_3D('',#1366,#1107,#1108);
#915=AXIS2_PLACEMENT_3D('',#1368,#1109,#1110);
#916=AXIS2_PLACEMENT_3D('',#1371,#1112,#1113);
#917=AXIS2_PLACEMENT_3D('',#1372,#1114,#1115);
#918=AXIS2_PLACEMENT_3D('',#1374,#1117,#1118);
#919=AXIS2_PLACEMENT_3D('',#1376,#1119,#1120);
#920=AXIS2_PLACEMENT_3D('',#1379,#1122,#1123);
#921=AXIS2_PLACEMENT_3D('',#1381,#1124,#1125);
#922=AXIS2_PLACEMENT_3D('',#1384,#1127,#1128);
#923=AXIS2_PLACEMENT_3D('',#1385,#1129,#1130);
#924=AXIS2_PLACEMENT_3D('',#1387,#1132,#1133);
#925=AXIS2_PLACEMENT_3D('',#1389,#1134,#1135);
#926=AXIS2_PLACEMENT_3D('',#1392,#1137,#1138);
#927=AXIS2_PLACEMENT_3D('',#1394,#1139,#1140);
#928=AXIS2_PLACEMENT_3D('',#1397,#1142,#1143);
#929=AXIS2_PLACEMENT_3D('',#1398,#1144,#1145);
#930=AXIS2_PLACEMENT_3D('',#1400,#1147,#1148);
#931=AXIS2_PLACEMENT_3D('',#1402,#1149,#1150);
#932=AXIS2_PLACEMENT_3D('',#1405,#1152,#1153);
#933=AXIS2_PLACEMENT_3D('',#1406,#1154,#1155);
#934=AXIS2_PLACEMENT_3D('',#1408,#1156,#1157);
#935=AXIS2_PLACEMENT_3D('',#1409,#1158,#1159);
#936=AXIS2_PLACEMENT_3D('',#1412,#1161,#1162);
#937=AXIS2_PLACEMENT_3D('',#1413,#1163,#1164);
#938=AXIS2_PLACEMENT_3D('',#1415,#1165,#1166);
#939=AXIS2_PLACEMENT_3D('',#1418,#1168,#1169);
#940=AXIS2_PLACEMENT_3D('',#1420,#1170,#1171);
#941=AXIS2_PLACEMENT_3D('',#1422,#1173,#1174);
#942=AXIS2_PLACEMENT_3D('',#1424,#1175,#1176);
#943=AXIS2_PLACEMENT_3D('',#1427,#1178,#1179);
#944=AXIS2_PLACEMENT_3D('',#1429,#1180,#1181);
#945=AXIS2_PLACEMENT_3D('',#1431,#1183,#1184);
#946=AXIS2_PLACEMENT_3D('',#1433,#1185,#1186);
#947=AXIS2_PLACEMENT_3D('',#1436,#1188,#1189);
#948=AXIS2_PLACEMENT_3D('',#1438,#1190,#1191);
#949=AXIS2_PLACEMENT_3D('',#1440,#1193,#1194);
#950=AXIS2_PLACEMENT_3D('',#1442,#1195,#1196);
#951=AXIS2_PLACEMENT_3D('',#1445,#1198,#1199);
#952=AXIS2_PLACEMENT_3D('',#1447,#1200,#1201);
#953=AXIS2_PLACEMENT_3D('',#1449,#1203,#1204);
#954=AXIS2_PLACEMENT_3D('',#1451,#1205,#1206);
#955=AXIS2_PLACEMENT_3D('',#1452,#1207,#1208);
#956=AXIS2_PLACEMENT_3D('',#1455,#1210,#1211);
#957=AXIS2_PLACEMENT_3D('',#1456,#1212,#1213);
#958=AXIS2_PLACEMENT_3D('',#1457,#1214,#1215);
#959=AXIS2_PLACEMENT_3D('',#1459,#1216,#1217);
#960=AXIS2_PLACEMENT_3D('',#1462,#1219,#1220);
#961=AXIS2_PLACEMENT_3D('',#1463,#1221,#1222);
#962=AXIS2_PLACEMENT_3D('',#1465,#1223,#1224);
#963=AXIS2_PLACEMENT_3D('',#1468,#1226,#1227);
#964=AXIS2_PLACEMENT_3D('',#1469,#1228,#1229);
#965=AXIS2_PLACEMENT_3D('',#1470,#1230,#1231);
#966=AXIS2_PLACEMENT_3D('',#1471,#1232,#1233);
#967=AXIS2_PLACEMENT_3D('',#1473,#1234,#1235);
#968=AXIS2_PLACEMENT_3D('',#1476,#1237,#1238);
#969=AXIS2_PLACEMENT_3D('',#1477,#1239,#1240);
#970=AXIS2_PLACEMENT_3D('',#1479,#1241,#1242);
#971=AXIS2_PLACEMENT_3D('',#1482,#1244,#1245);
#972=AXIS2_PLACEMENT_3D('',#1483,#1246,#1247);
#973=AXIS2_PLACEMENT_3D('',#1484,#1248,#1249);
#974=DIRECTION('axis',(0.,0.,1.));
#975=DIRECTION('refdir',(1.,0.,0.));
#976=DIRECTION('center_axis',(-1.,0.,0.));
#977=DIRECTION('ref_axis',(0.,0.,-1.));
#978=DIRECTION('',(0.,0.,-1.));
#979=DIRECTION('',(0.,-1.,0.));
#980=DIRECTION('',(0.,0.,-1.));
#981=DIRECTION('',(0.,-1.,0.));
#982=DIRECTION('center_axis',(0.,-1.,0.));
#983=DIRECTION('ref_axis',(-1.,0.,0.));
#984=DIRECTION('center_axis',(0.,-1.,0.));
#985=DIRECTION('ref_axis',(-1.,0.,0.));
#986=DIRECTION('',(0.,-1.,0.));
#987=DIRECTION('center_axis',(0.,-1.,0.));
#988=DIRECTION('ref_axis',(-1.,0.,0.));
#989=DIRECTION('center_axis',(2.15700473355745E-14,0.,1.));
#990=DIRECTION('ref_axis',(-1.,0.,2.15700473355745E-14));
#991=DIRECTION('',(-1.,0.,2.15700473355745E-14));
#992=DIRECTION('',(0.,-1.,0.));
#993=DIRECTION('',(-1.,0.,2.15700473355745E-14));
#994=DIRECTION('center_axis',(0.,-1.,0.));
#995=DIRECTION('ref_axis',(7.40148683083512E-16,0.,1.));
#996=DIRECTION('center_axis',(0.,-1.,0.));
#997=DIRECTION('ref_axis',(7.40148683083512E-16,0.,1.));
#998=DIRECTION('',(0.,-1.,0.));
#999=DIRECTION('center_axis',(0.,-1.,0.));
#1000=DIRECTION('ref_axis',(7.40148683083512E-16,0.,1.));
#1001=DIRECTION('center_axis',(1.,0.,0.));
#1002=DIRECTION('ref_axis',(0.,0.,1.));
#1003=DIRECTION('',(0.,0.,1.));
#1004=DIRECTION('',(0.,1.,0.));
#1005=DIRECTION('',(0.,0.,1.));
#1006=DIRECTION('center_axis',(0.,1.,0.));
#1007=DIRECTION('ref_axis',(-1.,0.,0.));
#1008=DIRECTION('center_axis',(0.,-1.,0.));
#1009=DIRECTION('ref_axis',(1.,0.,0.));
#1010=DIRECTION('center_axis',(0.,1.,0.));
#1011=DIRECTION('ref_axis',(1.,0.,0.));
#1012=DIRECTION('center_axis',(0.,1.,0.));
#1013=DIRECTION('ref_axis',(1.,0.,0.));
#1014=DIRECTION('center_axis',(0.,1.,0.));
#1015=DIRECTION('ref_axis',(1.,0.,0.));
#1016=DIRECTION('center_axis',(0.,-1.,0.));
#1017=DIRECTION('ref_axis',(-1.,0.,0.));
#1018=DIRECTION('center_axis',(0.,-1.,0.));
#1019=DIRECTION('ref_axis',(0.,0.,1.));
#1020=DIRECTION('center_axis',(0.,-1.,0.));
#1021=DIRECTION('ref_axis',(0.,0.,1.));
#1022=DIRECTION('center_axis',(0.,-1.,0.));
#1023=DIRECTION('ref_axis',(0.,0.,1.));
#1024=DIRECTION('center_axis',(0.,-1.,0.));
#1025=DIRECTION('ref_axis',(0.,0.,1.));
#1026=DIRECTION('center_axis',(0.,1.,0.));
#1027=DIRECTION('ref_axis',(0.,0.,1.));
#1028=DIRECTION('',(8.65956056235493E-17,-0.707106781186548,0.707106781186548));
#1029=DIRECTION('center_axis',(0.,1.,0.));
#1030=DIRECTION('ref_axis',(0.,0.,1.));
#1031=DIRECTION('center_axis',(0.,1.,0.));
#1032=DIRECTION('ref_axis',(0.,0.,1.));
#1033=DIRECTION('',(0.,-1.,0.));
#1034=DIRECTION('center_axis',(0.,1.,0.));
#1035=DIRECTION('ref_axis',(0.,0.,1.));
#1036=DIRECTION('center_axis',(0.,1.,0.));
#1037=DIRECTION('ref_axis',(0.,0.,1.));
#1038=DIRECTION('',(8.65956056235493E-17,-0.707106781186548,0.707106781186548));
#1039=DIRECTION('center_axis',(0.,1.,0.));
#1040=DIRECTION('ref_axis',(0.,0.,1.));
#1041=DIRECTION('center_axis',(0.,1.,0.));
#1042=DIRECTION('ref_axis',(0.,0.,1.));
#1043=DIRECTION('',(0.,-1.,0.));
#1044=DIRECTION('center_axis',(0.,1.,0.));
#1045=DIRECTION('ref_axis',(0.,0.,1.));
#1046=DIRECTION('center_axis',(0.,1.,0.));
#1047=DIRECTION('ref_axis',(0.,0.,1.));
#1048=DIRECTION('',(-8.65956056235493E-17,-0.707106781186547,0.707106781186547));
#1049=DIRECTION('center_axis',(0.,-1.,0.));
#1050=DIRECTION('ref_axis',(0.,0.,1.));
#1051=DIRECTION('center_axis',(0.,-1.,0.));
#1052=DIRECTION('ref_axis',(0.,0.,1.));
#1053=DIRECTION('',(0.,-1.,0.));
#1054=DIRECTION('center_axis',(0.,1.,0.));
#1055=DIRECTION('ref_axis',(0.,0.,1.));
#1056=DIRECTION('center_axis',(0.,1.,0.));
#1057=DIRECTION('ref_axis',(0.,0.,1.));
#1058=DIRECTION('',(-8.65956056235493E-17,-0.707106781186547,0.707106781186547));
#1059=DIRECTION('center_axis',(0.,-1.,0.));
#1060=DIRECTION('ref_axis',(0.,0.,1.));
#1061=DIRECTION('center_axis',(0.,-1.,0.));
#1062=DIRECTION('ref_axis',(0.,0.,1.));
#1063=DIRECTION('',(0.,-1.,0.));
#1064=DIRECTION('center_axis',(0.,1.,0.));
#1065=DIRECTION('ref_axis',(0.,0.,1.));
#1066=DIRECTION('center_axis',(0.,-1.,0.));
#1067=DIRECTION('ref_axis',(-1.,0.,0.));
#1068=DIRECTION('center_axis',(0.,-1.,0.));
#1069=DIRECTION('ref_axis',(-1.,0.,0.));
#1070=DIRECTION('',(0.,-1.,0.));
#1071=DIRECTION('center_axis',(0.,1.,0.));
#1072=DIRECTION('ref_axis',(-1.,0.,0.));
#1073=DIRECTION('center_axis',(0.,-1.,0.));
#1074=DIRECTION('ref_axis',(-1.,0.,0.));
#1075=DIRECTION('',(0.,-1.,0.));
#1076=DIRECTION('center_axis',(0.,-1.,0.));
#1077=DIRECTION('ref_axis',(-1.,0.,0.));
#1078=DIRECTION('center_axis',(0.,1.,0.));
#1079=DIRECTION('ref_axis',(-1.,0.,0.));
#1080=DIRECTION('center_axis',(0.,1.,0.));
#1081=DIRECTION('ref_axis',(1.,0.,0.));
#1082=DIRECTION('',(0.,-1.,0.));
#1083=DIRECTION('center_axis',(0.,-1.,0.));
#1084=DIRECTION('ref_axis',(1.,0.,0.));
#1085=DIRECTION('center_axis',(0.,-1.,0.));
#1086=DIRECTION('ref_axis',(0.,0.,-1.));
#1087=DIRECTION('center_axis',(0.,-1.,0.));
#1088=DIRECTION('ref_axis',(1.,0.,1.83697019872103E-16));
#1089=DIRECTION('center_axis',(0.,1.,0.));
#1090=DIRECTION('ref_axis',(1.,0.,1.83697019872103E-16));
#1091=DIRECTION('',(0.857167300702112,0.515038074910054,5.24863595569309E-17));
#1092=DIRECTION('center_axis',(0.,-1.,0.));
#1093=DIRECTION('ref_axis',(1.,0.,1.83697019872103E-16));
#1094=DIRECTION('center_axis',(0.,1.,0.));
#1095=DIRECTION('ref_axis',(1.,0.,1.83697019872103E-16));
#1096=DIRECTION('',(0.707106781186547,0.707106781186548,4.32978028117747E-17));
#1097=DIRECTION('center_axis',(0.,1.,0.));
#1098=DIRECTION('ref_axis',(1.,0.,1.83697019872103E-16));
#1099=DIRECTION('center_axis',(0.,1.,0.));
#1100=DIRECTION('ref_axis',(1.,0.,1.83697019872103E-16));
#1101=DIRECTION('',(0.,1.,0.));
#1102=DIRECTION('center_axis',(0.,-1.,0.));
#1103=DIRECTION('ref_axis',(-1.22464679914735E-16,0.,1.));
#1104=DIRECTION('center_axis',(0.,1.,0.));
#1105=DIRECTION('ref_axis',(-1.22464679914735E-16,0.,1.));
#1106=DIRECTION('',(0.,0.515038074910054,0.857167300702112));
#1107=DIRECTION('center_axis',(0.,-1.,0.));
#1108=DIRECTION('ref_axis',(-1.22464679914735E-16,0.,1.));
#1109=DIRECTION('center_axis',(0.,1.,0.));
#1110=DIRECTION('ref_axis',(-1.22464679914735E-16,0.,1.));
#1111=DIRECTION('',(0.,0.707106781186548,0.707106781186547));
#1112=DIRECTION('center_axis',(0.,1.,0.));
#1113=DIRECTION('ref_axis',(-1.22464679914735E-16,0.,1.));
#1114=DIRECTION('center_axis',(0.,1.,0.));
#1115=DIRECTION('ref_axis',(-1.22464679914735E-16,0.,1.));
#1116=DIRECTION('',(0.,1.,0.));
#1117=DIRECTION('center_axis',(0.,-1.,0.));
#1118=DIRECTION('ref_axis',(-1.,0.,-6.12323399573677E-17));
#1119=DIRECTION('center_axis',(0.,1.,0.));
#1120=DIRECTION('ref_axis',(-1.,0.,-6.12323399573677E-17));
#1121=DIRECTION('',(-0.857167300702112,0.515038074910054,5.24863595569309E-17));
#1122=DIRECTION('center_axis',(0.,-1.,0.));
#1123=DIRECTION('ref_axis',(-1.,0.,-6.12323399573677E-17));
#1124=DIRECTION('center_axis',(0.,1.,0.));
#1125=DIRECTION('ref_axis',(-1.,0.,-6.12323399573677E-17));
#1126=DIRECTION('',(-0.707106781186547,0.707106781186548,4.32978028117747E-17));
#1127=DIRECTION('center_axis',(0.,1.,0.));
#1128=DIRECTION('ref_axis',(-1.,0.,-6.12323399573677E-17));
#1129=DIRECTION('center_axis',(0.,1.,0.));
#1130=DIRECTION('ref_axis',(-1.,0.,-6.12323399573677E-17));
#1131=DIRECTION('',(0.,1.,0.));
#1132=DIRECTION('center_axis',(0.,-1.,0.));
#1133=DIRECTION('ref_axis',(0.,0.,-1.));
#1134=DIRECTION('center_axis',(0.,1.,0.));
#1135=DIRECTION('ref_axis',(0.,0.,-1.));
#1136=DIRECTION('',(-1.04972719113862E-16,0.515038074910054,-0.857167300702112));
#1137=DIRECTION('center_axis',(0.,-1.,0.));
#1138=DIRECTION('ref_axis',(0.,0.,-1.));
#1139=DIRECTION('center_axis',(0.,1.,0.));
#1140=DIRECTION('ref_axis',(0.,0.,-1.));
#1141=DIRECTION('',(-8.65956056235493E-17,0.707106781186548,-0.707106781186547));
#1142=DIRECTION('center_axis',(0.,-1.,0.));
#1143=DIRECTION('ref_axis',(0.,0.,-1.));
#1144=DIRECTION('center_axis',(0.,1.,0.));
#1145=DIRECTION('ref_axis',(0.,0.,-1.));
#1146=DIRECTION('',(0.,1.,0.));
#1147=DIRECTION('center_axis',(0.,1.,0.));
#1148=DIRECTION('ref_axis',(-1.,0.,0.));
#1149=DIRECTION('center_axis',(0.,-1.,0.));
#1150=DIRECTION('ref_axis',(-1.,0.,0.));
#1151=DIRECTION('',(0.,-1.,0.));
#1152=DIRECTION('center_axis',(0.,-1.,0.));
#1153=DIRECTION('ref_axis',(-1.,0.,0.));
#1154=DIRECTION('center_axis',(0.,1.,0.));
#1155=DIRECTION('ref_axis',(0.,0.,1.));
#1156=DIRECTION('center_axis',(0.,1.,0.));
#1157=DIRECTION('ref_axis',(-1.,0.,0.));
#1158=DIRECTION('center_axis',(0.,-1.,0.));
#1159=DIRECTION('ref_axis',(-1.,0.,0.));
#1160=DIRECTION('',(0.,-1.,0.));
#1161=DIRECTION('center_axis',(0.,1.,0.));
#1162=DIRECTION('ref_axis',(-1.,0.,0.));
#1163=DIRECTION('center_axis',(0.,1.,0.));
#1164=DIRECTION('ref_axis',(0.,0.,1.));
#1165=DIRECTION('center_axis',(0.,1.,0.));
#1166=DIRECTION('ref_axis',(0.,0.,1.));
#1167=DIRECTION('',(1.04972719113862E-16,-0.515038074910054,0.857167300702112));
#1168=DIRECTION('center_axis',(0.,1.,0.));
#1169=DIRECTION('ref_axis',(0.,0.,1.));
#1170=DIRECTION('center_axis',(0.,-1.,0.));
#1171=DIRECTION('ref_axis',(0.,0.,1.));
#1172=DIRECTION('',(0.,-1.,0.));
#1173=DIRECTION('center_axis',(0.,1.,0.));
#1174=DIRECTION('ref_axis',(0.,0.,1.));
#1175=DIRECTION('center_axis',(0.,1.,0.));
#1176=DIRECTION('ref_axis',(0.,0.,1.));
#1177=DIRECTION('',(1.04972719113862E-16,-0.515038074910054,0.857167300702112));
#1178=DIRECTION('center_axis',(0.,1.,0.));
#1179=DIRECTION('ref_axis',(0.,0.,1.));
#1180=DIRECTION('center_axis',(0.,-1.,0.));
#1181=DIRECTION('ref_axis',(0.,0.,1.));
#1182=DIRECTION('',(0.,-1.,0.));
#1183=DIRECTION('center_axis',(0.,1.,0.));
#1184=DIRECTION('ref_axis',(0.,0.,1.));
#1185=DIRECTION('center_axis',(0.,-1.,0.));
#1186=DIRECTION('ref_axis',(0.,0.,1.));
#1187=DIRECTION('',(-1.04972719113862E-16,-0.515038074910054,0.857167300702112));
#1188=DIRECTION('center_axis',(0.,-1.,0.));
#1189=DIRECTION('ref_axis',(0.,0.,1.));
#1190=DIRECTION('center_axis',(0.,-1.,0.));
#1191=DIRECTION('ref_axis',(0.,0.,1.));
#1192=DIRECTION('',(0.,-1.,0.));
#1193=DIRECTION('center_axis',(0.,1.,0.));
#1194=DIRECTION('ref_axis',(0.,0.,1.));
#1195=DIRECTION('center_axis',(0.,-1.,0.));
#1196=DIRECTION('ref_axis',(0.,0.,1.));
#1197=DIRECTION('',(-1.04972719113862E-16,-0.515038074910054,0.857167300702112));
#1198=DIRECTION('center_axis',(0.,-1.,0.));
#1199=DIRECTION('ref_axis',(0.,0.,1.));
#1200=DIRECTION('center_axis',(0.,-1.,0.));
#1201=DIRECTION('ref_axis',(0.,0.,1.));
#1202=DIRECTION('',(0.,-1.,0.));
#1203=DIRECTION('center_axis',(0.,-1.,0.));
#1204=DIRECTION('ref_axis',(0.,0.,-1.));
#1205=DIRECTION('center_axis',(0.,-1.,0.));
#1206=DIRECTION('ref_axis',(1.,0.,0.));
#1207=DIRECTION('center_axis',(0.,1.,0.));
#1208=DIRECTION('ref_axis',(1.,0.,0.));
#1209=DIRECTION('',(0.,-1.,0.));
#1210=DIRECTION('center_axis',(0.,1.,0.));
#1211=DIRECTION('ref_axis',(1.,0.,0.));
#1212=DIRECTION('center_axis',(0.,1.,0.));
#1213=DIRECTION('ref_axis',(1.,0.,0.));
#1214=DIRECTION('center_axis',(0.,1.,0.));
#1215=DIRECTION('ref_axis',(-1.,0.,0.));
#1216=DIRECTION('center_axis',(0.,1.,0.));
#1217=DIRECTION('ref_axis',(-1.,0.,0.));
#1218=DIRECTION('',(0.,-1.,0.));
#1219=DIRECTION('center_axis',(0.,-1.,0.));
#1220=DIRECTION('ref_axis',(-1.,0.,0.));
#1221=DIRECTION('center_axis',(0.,1.,0.));
#1222=DIRECTION('ref_axis',(-1.,0.,0.));
#1223=DIRECTION('center_axis',(0.,-1.,0.));
#1224=DIRECTION('ref_axis',(-1.,0.,0.));
#1225=DIRECTION('',(0.,-1.,0.));
#1226=DIRECTION('center_axis',(0.,1.,0.));
#1227=DIRECTION('ref_axis',(-1.,0.,0.));
#1228=DIRECTION('center_axis',(0.,-1.,0.));
#1229=DIRECTION('ref_axis',(0.,0.,-1.));
#1230=DIRECTION('center_axis',(0.,1.,0.));
#1231=DIRECTION('ref_axis',(0.,0.,1.));
#1232=DIRECTION('center_axis',(0.,1.,0.));
#1233=DIRECTION('ref_axis',(-1.,0.,0.));
#1234=DIRECTION('center_axis',(0.,-1.,0.));
#1235=DIRECTION('ref_axis',(-1.,0.,0.));
#1236=DIRECTION('',(0.,-1.,0.));
#1237=DIRECTION('center_axis',(0.,-1.,0.));
#1238=DIRECTION('ref_axis',(-1.,0.,0.));
#1239=DIRECTION('center_axis',(0.,1.,0.));
#1240=DIRECTION('ref_axis',(-1.,0.,0.));
#1241=DIRECTION('center_axis',(0.,1.,0.));
#1242=DIRECTION('ref_axis',(-1.,0.,0.));
#1243=DIRECTION('',(0.,-1.,0.));
#1244=DIRECTION('center_axis',(0.,1.,0.));
#1245=DIRECTION('ref_axis',(-1.,0.,0.));
#1246=DIRECTION('center_axis',(0.,1.,0.));
#1247=DIRECTION('ref_axis',(-1.,0.,0.));
#1248=DIRECTION('center_axis',(0.,1.,0.));
#1249=DIRECTION('ref_axis',(-1.,0.,0.));
#1250=CARTESIAN_POINT('',(0.,0.,0.));
#1251=CARTESIAN_POINT('Origin',(-5.,14.3,-11.7500000000001));
#1252=CARTESIAN_POINT('',(-5.,14.3,-11.7500000000001));
#1253=CARTESIAN_POINT('',(-5.,14.3,-16.5094669810991));
#1254=CARTESIAN_POINT('',(-5.,14.3,-5.87500000000005));
#1255=CARTESIAN_POINT('',(-5.,12.3,-11.7500000000001));
#1256=CARTESIAN_POINT('',(-5.,14.3,-11.7500000000001));
#1257=CARTESIAN_POINT('',(-5.,12.3,-16.5094669810991));
#1258=CARTESIAN_POINT('',(-5.,12.3,-16.5094669810991));
#1259=CARTESIAN_POINT('',(-5.,0.,-16.5094669810991));
#1260=CARTESIAN_POINT('Origin',(-3.5,14.3,-11.7500000000001));
#1261=CARTESIAN_POINT('',(-3.5,14.3,-10.2500000000001));
#1262=CARTESIAN_POINT('Origin',(-3.5,14.3,-11.7500000000001));
#1263=CARTESIAN_POINT('',(-3.5,12.3,-10.2500000000001));
#1264=CARTESIAN_POINT('',(-3.5,14.3,-10.2500000000001));
#1265=CARTESIAN_POINT('Origin',(-3.5,12.3,-11.7500000000001));
#1266=CARTESIAN_POINT('Origin',(3.5,14.3,-10.2500000000002));
#1267=CARTESIAN_POINT('',(3.5,14.3,-10.2500000000002));
#1268=CARTESIAN_POINT('',(1.74999999999989,14.3,-10.2500000000002));
#1269=CARTESIAN_POINT('',(3.5,12.3,-10.2500000000002));
#1270=CARTESIAN_POINT('',(3.5,14.3,-10.2500000000002));
#1271=CARTESIAN_POINT('',(-3.5,12.3,-10.2500000000001));
#1272=CARTESIAN_POINT('Origin',(3.5,14.3,-11.7500000000001));
#1273=CARTESIAN_POINT('',(4.99999999999985,14.3,-11.7500000000001));
#1274=CARTESIAN_POINT('Origin',(3.5,14.3,-11.7500000000001));
#1275=CARTESIAN_POINT('',(4.99999999999985,12.3,-11.7500000000001));
#1276=CARTESIAN_POINT('',(4.99999999999985,14.3,-11.7500000000001));
#1277=CARTESIAN_POINT('Origin',(3.5,12.3,-11.7500000000001));
#1278=CARTESIAN_POINT('Origin',(5.,14.3,-16.5094669810991));
#1279=CARTESIAN_POINT('',(5.,14.3,-16.5094669810991));
#1280=CARTESIAN_POINT('',(5.,14.3,-8.25473349054953));
#1281=CARTESIAN_POINT('',(5.,12.3,-16.5094669810991));
#1282=CARTESIAN_POINT('',(5.,0.,-16.5094669810991));
#1283=CARTESIAN_POINT('',(5.,12.3,-16.5094669810991));
#1284=CARTESIAN_POINT('Origin',(0.,12.3,-13.75));
#1285=CARTESIAN_POINT('Origin',(0.,12.3,0.));
#1286=CARTESIAN_POINT('Origin',(0.,14.3,0.));
#1287=CARTESIAN_POINT('',(-17.25,14.3,2.11251572852918E-15));
#1288=CARTESIAN_POINT('Origin',(0.,14.3,0.));
#1289=CARTESIAN_POINT('Origin',(0.,14.3,0.));
#1290=CARTESIAN_POINT('',(7.5,14.3,-9.18485099360515E-16));
#1291=CARTESIAN_POINT('Origin',(0.,14.3,0.));
#1292=CARTESIAN_POINT('',(-6.7,14.3,5.6));
#1293=CARTESIAN_POINT('Origin',(-6.7,14.3,6.7));
#1294=CARTESIAN_POINT('',(-6.7,14.3,-7.8));
#1295=CARTESIAN_POINT('Origin',(-6.7,14.3,-6.7));
#1296=CARTESIAN_POINT('',(6.7,14.3,5.6));
#1297=CARTESIAN_POINT('Origin',(6.7,14.3,6.7));
#1298=CARTESIAN_POINT('',(6.7,14.3,-7.8));
#1299=CARTESIAN_POINT('Origin',(6.7,14.3,-6.7));
#1300=CARTESIAN_POINT('Origin',(6.7,14.15575,-6.7));
#1301=CARTESIAN_POINT('',(6.7,14.0115,-7.5115));
#1302=CARTESIAN_POINT('',(6.7,14.15575,-7.65575));
#1303=CARTESIAN_POINT('Origin',(6.7,14.0115,-6.7));
#1304=CARTESIAN_POINT('Origin',(6.7,11.8,-6.7));
#1305=CARTESIAN_POINT('',(6.7,10.5,-7.5115));
#1306=CARTESIAN_POINT('',(6.7,11.8,-7.5115));
#1307=CARTESIAN_POINT('Origin',(6.7,10.5,-6.7));
#1308=CARTESIAN_POINT('Origin',(6.7,14.15575,6.7));
#1309=CARTESIAN_POINT('',(6.7,14.0115,5.8885));
#1310=CARTESIAN_POINT('',(6.7,14.15575,5.74425));
#1311=CARTESIAN_POINT('Origin',(6.7,14.0115,6.7));
#1312=CARTESIAN_POINT('Origin',(6.7,11.8,6.7));
#1313=CARTESIAN_POINT('',(6.7,10.5,5.8885));
#1314=CARTESIAN_POINT('',(6.7,11.8,5.8885));
#1315=CARTESIAN_POINT('Origin',(6.7,10.5,6.7));
#1316=CARTESIAN_POINT('Origin',(-6.7,14.15575,-6.7));
#1317=CARTESIAN_POINT('',(-6.7,14.0115,-7.5115));
#1318=CARTESIAN_POINT('',(-6.7,14.15575,-7.65575));
#1319=CARTESIAN_POINT('Origin',(-6.7,14.0115,-6.7));
#1320=CARTESIAN_POINT('Origin',(-6.7,11.8,-6.7));
#1321=CARTESIAN_POINT('',(-6.7,10.5,-7.5115));
#1322=CARTESIAN_POINT('',(-6.7,11.8,-7.5115));
#1323=CARTESIAN_POINT('Origin',(-6.7,10.5,-6.7));
#1324=CARTESIAN_POINT('Origin',(-6.7,14.15575,6.7));
#1325=CARTESIAN_POINT('',(-6.7,14.0115,5.8885));
#1326=CARTESIAN_POINT('',(-6.7,14.15575,5.74425));
#1327=CARTESIAN_POINT('Origin',(-6.7,14.0115,6.7));
#1328=CARTESIAN_POINT('Origin',(-6.7,11.8,6.7));
#1329=CARTESIAN_POINT('',(-6.7,10.5,5.8885));
#1330=CARTESIAN_POINT('',(-6.7,11.8,5.8885));
#1331=CARTESIAN_POINT('Origin',(-6.7,10.5,6.7));
#1332=CARTESIAN_POINT('Origin',(0.,14.3,0.));
#1333=CARTESIAN_POINT('',(5.25,12.8,6.42939569552361E-16));
#1334=CARTESIAN_POINT('Origin',(0.,12.8,0.));
#1335=CARTESIAN_POINT('',(5.25,10.5,-6.42939569552361E-16));
#1336=CARTESIAN_POINT('',(5.25,14.3,6.42939569552361E-16));
#1337=CARTESIAN_POINT('Origin',(0.,10.5,0.));
#1338=CARTESIAN_POINT('Origin',(0.,14.3,0.));
#1339=CARTESIAN_POINT('',(7.5,12.8,-9.18485099360515E-16));
#1340=CARTESIAN_POINT('',(7.5,14.3,9.18485099360515E-16));
#1341=CARTESIAN_POINT('Origin',(0.,12.8,0.));
#1342=CARTESIAN_POINT('Origin',(0.,12.8,0.));
#1343=CARTESIAN_POINT('Origin',(0.,0.,0.));
#1344=CARTESIAN_POINT('',(-17.25,10.5,-2.11251572852918E-15));
#1345=CARTESIAN_POINT('',(-17.25,0.,2.11251572852918E-15));
#1346=CARTESIAN_POINT('Origin',(0.,10.5,0.));
#1347=CARTESIAN_POINT('Origin',(0.,10.5,0.));
#1348=CARTESIAN_POINT('Origin',(-4.25,5.30043030951378,-4.25));
#1349=CARTESIAN_POINT('',(-5.25,5.,-4.25));
#1350=CARTESIAN_POINT('Origin',(-4.25,5.,-4.25));
#1351=CARTESIAN_POINT('',(-4.25,5.60086061902756,-4.25));
#1352=CARTESIAN_POINT('',(-4.75,5.30043030951378,-4.25));
#1353=CARTESIAN_POINT('Origin',(-4.25,0.0500000000000001,-4.25));
#1354=CARTESIAN_POINT('',(-5.35,-1.38777878078145E-16,-4.25));
#1355=CARTESIAN_POINT('Origin',(-4.25,0.,-4.25));
#1356=CARTESIAN_POINT('',(-5.25,0.1,-4.25));
#1357=CARTESIAN_POINT('',(-5.3,0.0500000000000001,-4.25));
#1358=CARTESIAN_POINT('Origin',(-4.25,0.1,-4.25));
#1359=CARTESIAN_POINT('Origin',(-4.25,2.5,-4.25));
#1360=CARTESIAN_POINT('',(-5.25,2.5,-4.25));
#1361=CARTESIAN_POINT('Origin',(4.25,5.30043030951378,-4.25));
#1362=CARTESIAN_POINT('',(4.25,5.,-5.25));
#1363=CARTESIAN_POINT('Origin',(4.25,5.,-4.25));
#1364=CARTESIAN_POINT('',(4.25,5.60086061902756,-4.25));
#1365=CARTESIAN_POINT('',(4.25,5.30043030951378,-4.75));
#1366=CARTESIAN_POINT('Origin',(4.25,0.0500000000000001,-4.25));
#1367=CARTESIAN_POINT('',(4.25,-1.38777878078145E-16,-5.35));
#1368=CARTESIAN_POINT('Origin',(4.25,0.,-4.25));
#1369=CARTESIAN_POINT('',(4.25,0.1,-5.25));
#1370=CARTESIAN_POINT('',(4.25,0.0500000000000001,-5.3));
#1371=CARTESIAN_POINT('Origin',(4.25,0.1,-4.25));
#1372=CARTESIAN_POINT('Origin',(4.25,2.5,-4.25));
#1373=CARTESIAN_POINT('',(4.25,2.5,-5.25));
#1374=CARTESIAN_POINT('Origin',(4.25,5.30043030951378,4.25));
#1375=CARTESIAN_POINT('',(5.25,5.,4.25));
#1376=CARTESIAN_POINT('Origin',(4.25,5.,4.25));
#1377=CARTESIAN_POINT('',(4.25,5.60086061902756,4.25));
#1378=CARTESIAN_POINT('',(4.75,5.30043030951378,4.25));
#1379=CARTESIAN_POINT('Origin',(4.25,0.0500000000000001,4.25));
#1380=CARTESIAN_POINT('',(5.35,0.,4.25));
#1381=CARTESIAN_POINT('Origin',(4.25,0.,4.25));
#1382=CARTESIAN_POINT('',(5.25,0.1,4.25));
#1383=CARTESIAN_POINT('',(5.3,0.0500000000000001,4.25));
#1384=CARTESIAN_POINT('Origin',(4.25,0.1,4.25));
#1385=CARTESIAN_POINT('Origin',(4.25,2.5,4.25));
#1386=CARTESIAN_POINT('',(5.25,2.5,4.25));
#1387=CARTESIAN_POINT('Origin',(-4.25,5.21721249888683,4.25));
#1388=CARTESIAN_POINT('',(-4.25,5.,5.0615));
#1389=CARTESIAN_POINT('Origin',(-4.25,5.,4.25));
#1390=CARTESIAN_POINT('',(-4.25,5.48759839234087,4.25));
#1391=CARTESIAN_POINT('',(-4.25,5.21721249888683,4.69999769479257));
#1392=CARTESIAN_POINT('Origin',(-4.25,0.0500000000000001,4.25));
#1393=CARTESIAN_POINT('',(-4.25,0.,5.35));
#1394=CARTESIAN_POINT('Origin',(-4.25,0.,4.25));
#1395=CARTESIAN_POINT('',(-4.25,0.2885,5.0615));
#1396=CARTESIAN_POINT('',(-4.25,0.0500000000000001,5.3));
#1397=CARTESIAN_POINT('Origin',(-4.25,0.2885,4.25));
#1398=CARTESIAN_POINT('Origin',(-4.25,2.5,4.25));
#1399=CARTESIAN_POINT('',(-4.25,2.5,5.0615));
#1400=CARTESIAN_POINT('Origin',(0.,10.5,0.));
#1401=CARTESIAN_POINT('',(3.5,14.3,4.28626379701574E-16));
#1402=CARTESIAN_POINT('Origin',(0.,14.3,0.));
#1403=CARTESIAN_POINT('',(3.5,10.5,-4.28626379701574E-16));
#1404=CARTESIAN_POINT('',(3.5,10.5,-4.28626379701574E-16));
#1405=CARTESIAN_POINT('Origin',(0.,10.5,0.));
#1406=CARTESIAN_POINT('Origin',(0.,14.3,0.));
#1407=CARTESIAN_POINT('',(2.615,14.3,-3.20245137977033E-16));
#1408=CARTESIAN_POINT('Origin',(0.,14.3,0.));
#1409=CARTESIAN_POINT('Origin',(0.,12.8,0.));
#1410=CARTESIAN_POINT('',(2.615,0.,-3.20245137977033E-16));
#1411=CARTESIAN_POINT('',(2.615,12.8,3.20245137977033E-16));
#1412=CARTESIAN_POINT('Origin',(0.,0.,0.));
#1413=CARTESIAN_POINT('Origin',(6.7,9.05620080382957,-6.7));
#1414=CARTESIAN_POINT('',(6.7,9.3,-7.5115));
#1415=CARTESIAN_POINT('Origin',(6.7,9.3,-6.7));
#1416=CARTESIAN_POINT('',(6.7,8.81240160765914,-6.7));
#1417=CARTESIAN_POINT('',(6.7,9.05620080382957,-7.10575));
#1418=CARTESIAN_POINT('Origin',(6.7,11.8,-6.7));
#1419=CARTESIAN_POINT('',(6.7,10.5,-7.5115));
#1420=CARTESIAN_POINT('Origin',(6.7,10.5,-6.7));
#1421=CARTESIAN_POINT('',(6.7,11.8,-7.5115));
#1422=CARTESIAN_POINT('Origin',(6.7,9.05620080382957,6.7));
#1423=CARTESIAN_POINT('',(6.7,9.3,5.8885));
#1424=CARTESIAN_POINT('Origin',(6.7,9.3,6.7));
#1425=CARTESIAN_POINT('',(6.7,8.81240160765914,6.7));
#1426=CARTESIAN_POINT('',(6.7,9.05620080382957,6.29425));
#1427=CARTESIAN_POINT('Origin',(6.7,11.8,6.7));
#1428=CARTESIAN_POINT('',(6.7,10.5,5.8885));
#1429=CARTESIAN_POINT('Origin',(6.7,10.5,6.7));
#1430=CARTESIAN_POINT('',(6.7,11.8,5.8885));
#1431=CARTESIAN_POINT('Origin',(-6.7,9.05620080382957,-6.7));
#1432=CARTESIAN_POINT('',(-6.7,9.3,-7.5115));
#1433=CARTESIAN_POINT('Origin',(-6.7,9.3,-6.7));
#1434=CARTESIAN_POINT('',(-6.7,8.81240160765914,-6.7));
#1435=CARTESIAN_POINT('',(-6.7,9.05620080382957,-7.10575));
#1436=CARTESIAN_POINT('Origin',(-6.7,11.8,-6.7));
#1437=CARTESIAN_POINT('',(-6.7,10.5,-7.5115));
#1438=CARTESIAN_POINT('Origin',(-6.7,10.5,-6.7));
#1439=CARTESIAN_POINT('',(-6.7,11.8,-7.5115));
#1440=CARTESIAN_POINT('Origin',(-6.7,9.05620080382957,6.7));
#1441=CARTESIAN_POINT('',(-6.7,9.3,5.8885));
#1442=CARTESIAN_POINT('Origin',(-6.7,9.3,6.7));
#1443=CARTESIAN_POINT('',(-6.7,8.81240160765914,6.7));
#1444=CARTESIAN_POINT('',(-6.7,9.05620080382957,6.29425));
#1445=CARTESIAN_POINT('Origin',(-6.7,11.8,6.7));
#1446=CARTESIAN_POINT('',(-6.7,10.5,5.8885));
#1447=CARTESIAN_POINT('Origin',(-6.7,10.5,6.7));
#1448=CARTESIAN_POINT('',(-6.7,11.8,5.8885));
#1449=CARTESIAN_POINT('Origin',(0.,10.5,0.));
#1450=CARTESIAN_POINT('',(-17.25,10.5,-2.11251572852918E-15));
#1451=CARTESIAN_POINT('Origin',(0.,10.5,0.));
#1452=CARTESIAN_POINT('Origin',(0.,0.,0.));
#1453=CARTESIAN_POINT('',(-17.25,0.,2.11251572852918E-15));
#1454=CARTESIAN_POINT('',(-17.25,0.,2.11251572852918E-15));
#1455=CARTESIAN_POINT('Origin',(0.,0.,0.));
#1456=CARTESIAN_POINT('Origin',(0.,0.,0.));
#1457=CARTESIAN_POINT('Origin',(0.,10.5,0.));
#1458=CARTESIAN_POINT('',(3.5,12.8,-4.28626379701574E-16));
#1459=CARTESIAN_POINT('Origin',(0.,12.8,0.));
#1460=CARTESIAN_POINT('',(3.5,10.5,4.28626379701574E-16));
#1461=CARTESIAN_POINT('',(3.5,10.5,-4.28626379701574E-16));
#1462=CARTESIAN_POINT('Origin',(0.,10.5,0.));
#1463=CARTESIAN_POINT('Origin',(0.,10.5,0.));
#1464=CARTESIAN_POINT('',(5.25,12.8,6.42939569552361E-16));
#1465=CARTESIAN_POINT('Origin',(0.,12.8,0.));
#1466=CARTESIAN_POINT('',(5.25,10.5,-6.42939569552361E-16));
#1467=CARTESIAN_POINT('',(5.25,10.5,-6.42939569552361E-16));
#1468=CARTESIAN_POINT('Origin',(0.,10.5,0.));
#1469=CARTESIAN_POINT('Origin',(0.,10.5,0.));
#1470=CARTESIAN_POINT('Origin',(0.,12.8,0.));
#1471=CARTESIAN_POINT('Origin',(0.,12.8,0.));
#1472=CARTESIAN_POINT('',(3.5,13.8,-4.28626379701574E-16));
#1473=CARTESIAN_POINT('Origin',(0.,13.8,0.));
#1474=CARTESIAN_POINT('',(3.5,12.8,-4.28626379701574E-16));
#1475=CARTESIAN_POINT('',(3.5,12.8,-4.28626379701574E-16));
#1476=CARTESIAN_POINT('Origin',(0.,12.8,0.));
#1477=CARTESIAN_POINT('Origin',(0.,12.8,0.));
#1478=CARTESIAN_POINT('',(6.5,13.8,-7.9602041944578E-16));
#1479=CARTESIAN_POINT('Origin',(0.,13.8,0.));
#1480=CARTESIAN_POINT('',(6.5,12.8,-7.9602041944578E-16));
#1481=CARTESIAN_POINT('',(6.5,12.8,-7.9602041944578E-16));
#1482=CARTESIAN_POINT('Origin',(0.,12.8,0.));
#1483=CARTESIAN_POINT('Origin',(0.,13.8,0.));
#1484=CARTESIAN_POINT('Origin',(0.,12.8,0.));
#1485=UNCERTAINTY_MEASURE_WITH_UNIT(LENGTH_MEASURE(0.01),#1489,
'DISTANCE_ACCURACY_VALUE',
'Maximum model space distance between geometric entities at asserted c
onnectivities');
#1486=UNCERTAINTY_MEASURE_WITH_UNIT(LENGTH_MEASURE(0.01),#1489,
'DISTANCE_ACCURACY_VALUE',
'Maximum model space distance between geometric entities at asserted c
onnectivities');
#1487=(
GEOMETRIC_REPRESENTATION_CONTEXT(3)
GLOBAL_UNCERTAINTY_ASSIGNED_CONTEXT((#1485))
GLOBAL_UNIT_ASSIGNED_CONTEXT((#1489,#1491,#1492))
REPRESENTATION_CONTEXT('','3D')
);
#1488=(
GEOMETRIC_REPRESENTATION_CONTEXT(3)
GLOBAL_UNCERTAINTY_ASSIGNED_CONTEXT((#1486))
GLOBAL_UNIT_ASSIGNED_CONTEXT((#1489,#1491,#1492))
REPRESENTATION_CONTEXT('','3D')
);
#1489=(
LENGTH_UNIT()
NAMED_UNIT(*)
SI_UNIT(.MILLI.,.METRE.)
);
#1490=(
LENGTH_UNIT()
NAMED_UNIT(*)
SI_UNIT($,.METRE.)
);
#1491=(
NAMED_UNIT(*)
PLANE_ANGLE_UNIT()
SI_UNIT($,.RADIAN.)
);
#1492=(
NAMED_UNIT(*)
SI_UNIT($,.STERADIAN.)
SOLID_ANGLE_UNIT()
);
#1493=SHAPE_DEFINITION_REPRESENTATION(#1494,#1495);
#1494=PRODUCT_DEFINITION_SHAPE('',$,#1497);
#1495=SHAPE_REPRESENTATION('',(#861),#1487);
#1496=PRODUCT_DEFINITION_CONTEXT('part definition',#1501,'design');
#1497=PRODUCT_DEFINITION('PM2805 Gibal motor','PM2805 Gibal motor v5',#1498,
#1496);
#1498=PRODUCT_DEFINITION_FORMATION('',$,#1503);
#1499=PRODUCT_RELATED_PRODUCT_CATEGORY('PM2805 Gibal motor v5',
'PM2805 Gibal motor v5',(#1503));
#1500=APPLICATION_PROTOCOL_DEFINITION('international standard',
'automotive_design',2009,#1501);
#1501=APPLICATION_CONTEXT(
'Core Data for Automotive Mechanical Design Process');
#1502=PRODUCT_CONTEXT('part definition',#1501,'mechanical');
#1503=PRODUCT('PM2805 Gibal motor','PM2805 Gibal motor v5',$,(#1502));
#1504=PRESENTATION_STYLE_ASSIGNMENT((#1507));
#1505=PRESENTATION_STYLE_ASSIGNMENT((#1508));
#1506=PRESENTATION_STYLE_ASSIGNMENT((#1509));
#1507=SURFACE_STYLE_USAGE(.BOTH.,#1510);
#1508=SURFACE_STYLE_USAGE(.BOTH.,#1511);
#1509=SURFACE_STYLE_USAGE(.BOTH.,#1512);
#1510=SURFACE_SIDE_STYLE('',(#1513));
#1511=SURFACE_SIDE_STYLE('',(#1514));
#1512=SURFACE_SIDE_STYLE('',(#1515));
#1513=SURFACE_STYLE_FILL_AREA(#1516);
#1514=SURFACE_STYLE_FILL_AREA(#1517);
#1515=SURFACE_STYLE_FILL_AREA(#1518);
#1516=FILL_AREA_STYLE('Steel - Satin',(#1519));
#1517=FILL_AREA_STYLE('Plastic - Glossy (Black)',(#1520));
#1518=FILL_AREA_STYLE('Chrome',(#1521));
#1519=FILL_AREA_STYLE_COLOUR('Steel - Satin',#1522);
#1520=FILL_AREA_STYLE_COLOUR('Plastic - Glossy (Black)',#1523);
#1521=FILL_AREA_STYLE_COLOUR('Chrome',#1524);
#1522=COLOUR_RGB('Steel - Satin',0.627450980392157,0.627450980392157,0.627450980392157);
#1523=COLOUR_RGB('Plastic - Glossy (Black)',0.0980392156862745,0.0980392156862745,
0.0980392156862745);
#1524=COLOUR_RGB('Chrome',0.768627450980392,0.772549019607843,0.768627450980392);
ENDSEC;
END-ISO-10303-21;
